<svg xmlns="http://www.w3.org/2000/svg" xmlns:xlink="http://www.w3.org/1999/xlink" xmlns:lucid="lucid" width="1376.04" height="545.15"><g transform="translate(-2263.9560836412365 -587.2410300925931)" lucid:page-tab-id="iWyiPFsZhNO."><path d="M0 0h3677.73v2581.67H0z" fill="#fff"/><path d="M2361 820h99.5M2361.03 820H2360" stroke="#5e5e5e" stroke-width="2" fill="none"/><path d="M2475.76 820l-14.26 4.63v-9.26z" stroke="#5e5e5e" stroke-width="2" fill="#5e5e5e"/><path d="M2567.14 820c0 22.1-17.9 40-40 40s-40-17.9-40-40 17.9-40 40-40 40 17.9 40 40zm-68.3-28.3l56.6 56.6m-56.6 0l56.6-56.6" stroke="#5e5e5e" stroke-width="2" fill="#fff"/><path d="M2487.14 807.58h24.63v26.1h-24.63z" fill="none"/><use xlink:href="#a" transform="matrix(1,0,0,1,2487.1382415926205,807.5790157583785) translate(6.018518518518519 17.944444444444443)"/><path d="M2516.94 834h20.4v26.9h-20.4z" fill="none"/><use xlink:href="#b" transform="matrix(1,0,0,1,2516.9405145095725,833.9953476675466) translate(6.827160493827161 17.944444444444443)"/><path d="M2569.14 820H2640" stroke="#5e5e5e" stroke-width="2" fill="none"/><path d="M2569.16 821h-1.08l.06-1-.04-1h1.07z" stroke="#5e5e5e" stroke-width=".05" fill="#5e5e5e"/><path d="M2655.26 820l-14.26 4.63v-9.26z" stroke="#5e5e5e" stroke-width="2" fill="#5e5e5e"/><path d="M2660 766a6 6 0 0 1 6-6h148a6 6 0 0 1 6 6v108a6 6 0 0 1-6 6h-148a6 6 0 0 1-6-6z" stroke="#5e5e5e" stroke-width="3" fill="#fff"/><use xlink:href="#c" transform="matrix(1,0,0,1,2672,772) translate(7.043209876543202 53.77777777777778)"/><path d="M2822.5 820h70.36" stroke="#5e5e5e" stroke-width="2" fill="none"/><path d="M2822.53 821h-1.03v-2h1.03z" stroke="#5e5e5e" stroke-width=".05" fill="#5e5e5e"/><path d="M2908.13 820l-14.27 4.63v-9.26z" stroke="#5e5e5e" stroke-width="2" fill="#5e5e5e"/><path d="M2912.86 766a6 6 0 0 1 6-6h148a6 6 0 0 1 6 6v108a6 6 0 0 1-6 6h-148a6 6 0 0 1-6-6z" stroke="#5e5e5e" stroke-width="3" fill="#fff"/><use xlink:href="#d" transform="matrix(1,0,0,1,2924.8617584073795,772) translate(23.586419753086417 53.77777777777778)"/><path d="M3075.36 820h81.97" stroke="#5e5e5e" stroke-width="2" fill="none"/><path d="M3075.4 821h-1.04v-2h1.03z" stroke="#5e5e5e" stroke-width=".05" fill="#5e5e5e"/><path d="M3172.6 820l-14.27 4.63v-9.26z" stroke="#5e5e5e" stroke-width="2" fill="#5e5e5e"/><path d="M3177.33 766a6 6 0 0 1 6-6h148a6 6 0 0 1 6 6v108a6 6 0 0 1-6 6h-148a6 6 0 0 1-6-6z" stroke="#5e5e5e" stroke-width="3" fill="#fff"/><use xlink:href="#e" transform="matrix(1,0,0,1,3189.333333333334,772) translate(36.54938271604939 53.77777777777778)"/><path d="M3339.83 820h281.67" stroke="#5e5e5e" stroke-width="2" fill="none"/><path d="M3339.86 821h-1.03v-2h1.03z" stroke="#5e5e5e" stroke-width=".05" fill="#5e5e5e"/><path d="M3636.76 820l-14.26 4.63v-9.26z" stroke="#5e5e5e" stroke-width="2" fill="#5e5e5e"/><path d="M3500 770.57h94.65v33.67H3500z" fill="#fff" fill-opacity="0"/><path d="M3517.74 781.87h-.95c-.46-1.66-.88-2.64-1.56-3.55-1.32-1.7-3.2-2.95-5.48-2.95-2.35 0-3.82 1.5-3.82 3.6 0 2.56 2.8 4.15 6.76 6.46 4 2.34 5.87 4.54 5.87 7.4 0 4.24-3.33 7.08-7.72 7.08-1.6 0-3.06-.25-4.46-.86-.73-.3-1.37-.4-1.8-.4-.55 0-1.05.44-1.05 1.23h-.83l-1.1-8h.84c1.74 4.56 4.2 6.68 7.8 6.68 2.63 0 4.5-1.74 4.5-4.24 0-1.3-.4-2.18-1.1-2.97-1.33-1.44-3.94-3.1-6.36-4.4-3.4-1.8-4.62-4.15-4.62-6.5 0-4.12 2.84-6.6 6.58-6.6 1.55 0 2.54.22 3.97.82.68.3 1.3.45 1.67.45.64 0 1.06-.45 1.2-1.28h.8M3537.74 796.9v1.04c-1.14 1.44-2.12 1.82-3.4 1.82-1.4 0-2.24-.76-2.43-2.76h-.02c-2 2.27-3.86 2.76-5.5 2.76-2.33 0-3.96-1.44-3.96-3.93 0-1.97 1.18-3.45 2.65-4.43 1.13-.75 2.53-1.47 6.8-3.06v-2.04c0-2.35-1.24-3.4-2.94-3.4-1.5 0-2.65.83-2.65 1.85 0 .68.23.8.23 1.6 0 .7-.75 1.54-1.73 1.54-.8 0-1.63-.73-1.63-1.75 0-1 .6-2.2 1.93-3.03 1.06-.68 2.65-1.13 4.35-1.13 2.12 0 3.55.6 4.46 1.7.9 1.08 1.06 1.88 1.06 4.2v7.2c0 1.75.5 2.5 1.17 2.5.62 0 1-.2 1.64-.72m-5.86-2.3v-5.33c-2.35.83-3.9 1.62-4.84 2.5-.9.82-1.3 1.73-1.3 2.9 0 2 1.15 2.92 2.62 2.92.76 0 1.55-.2 2.2-.6 1.1-.76 1.32-1.3 1.32-2.4M3547.57 799.38h-8.92v-.57c2.38-.17 2.9-.82 2.9-2.9v-17.73c0-1.82-.37-2.42-1.58-2.42-.3 0-.8 0-1.4.07v-.6c2.6-.64 4-1.02 5.97-1.67l.2.16v22.4c0 2.07.4 2.56 2.83 2.7v.58M3555.17 775.48c0 1.1-.83 1.93-1.97 1.93-1.05 0-1.9-.82-1.9-1.92 0-1.06.88-1.93 1.94-1.93 1.1 0 1.93.87 1.93 1.93m2.76 23.9h-8.96v-.57c2.6-.14 3-.48 3-3.35v-8.6c0-1.76-.32-2.37-1.26-2.37-.33 0-.9 0-1.58.2v-.6l5.86-2.1.15.16v13.27c0 2.8.3 3.23 2.8 3.4v.58M3577.48 797.8l-5.56 1.96-.15-.1v-2.43c-1.28 1.77-2.72 2.53-4.84 2.53-4.2 0-7-3.3-7-8.13 0-5.37 3.52-9.64 7.87-9.64 1.5 0 2.53.4 3.97 1.6v-5.9c0-1.54-.34-1.92-1.74-1.92-.3 0-.53 0-.83.04v-.6c2.42-.64 3.74-1.02 5.56-1.67l.2.08v21.44c0 1.74.3 2.16 1.65 2.16.2 0 .24 0 .88-.04v.6m-5.7-2.28v-8.7c0-2-1.83-3.78-3.87-3.78-2.86 0-4.7 2.8-4.7 7.08 0 4.65 2.03 7.67 5.2 7.67 1.18 0 2.12-.42 2.8-1.22.34-.38.57-.8.57-1.06M3594.53 796.9v1.04c-1.13 1.44-2.1 1.82-3.4 1.82-1.4 0-2.23-.76-2.42-2.76h-.03c-2 2.27-3.85 2.76-5.48 2.76-2.35 0-3.98-1.44-3.98-3.93 0-1.97 1.17-3.45 2.65-4.43 1.13-.75 2.53-1.47 6.8-3.06v-2.04c0-2.35-1.24-3.4-2.95-3.4-1.5 0-2.64.83-2.64 1.85 0 .68.22.8.22 1.6 0 .7-.75 1.54-1.74 1.54-.8 0-1.62-.73-1.62-1.75 0-1 .6-2.2 1.93-3.03 1.06-.68 2.64-1.13 4.35-1.13 2.1 0 3.55.6 4.46 1.7.9 1.08 1.06 1.88 1.06 4.2v7.2c0 1.75.5 2.5 1.17 2.5.6 0 1-.2 1.63-.72m-5.86-2.3v-5.33c-2.34.83-3.9 1.62-4.84 2.5-.9.82-1.28 1.73-1.28 2.9 0 2 1.13 2.92 2.6 2.92.76 0 1.56-.2 2.2-.6 1.1-.76 1.32-1.3 1.32-2.4"/><path d="M2912.86 1016.9a6 6 0 0 1 6-6h148a6 6 0 0 1 6 6v108a6 6 0 0 1-6 6h-148a6 6 0 0 1-6-6z" stroke="#5e5e5e" stroke-width="3" fill="#fff"/><use xlink:href="#f" transform="matrix(1,0,0,1,2924.8617584073795,1022.8937888979275) translate(32.845679012345684 53.77777777777778)"/><path d="M2910.36 1070.9h-377.7a6 6 0 0 1-6-6V879.4" stroke="#5e5e5e" stroke-width="2" fill="none"/><path d="M2911.36 1071.9h-1.02v-2h1.02z" stroke="#5e5e5e" stroke-width=".05" fill="#5e5e5e"/><path d="M2526.67 864.13l4.63 14.27h-9.27z" stroke="#5e5e5e" stroke-width="2" fill="#5e5e5e"/><path d="M3473.96 821v243.9a6 6 0 0 1-6 6h-375.1M3473.96 821.03V820" stroke="#5e5e5e" stroke-width="2" fill="none"/><path d="M3077.6 1070.9l14.26-4.64v9.27z" stroke="#5e5e5e" stroke-width="2" fill="#5e5e5e"/><path d="M2263.96 761.74a6 6 0 0 1 6-6h228a6 6 0 0 1 6 6v51.34a6 6 0 0 1-6 6h-228a6 6 0 0 1-6-6z" stroke="#000" stroke-opacity="0" stroke-width="2" fill="#fff" fill-opacity="0"/><use xlink:href="#g" transform="matrix(1,0,0,1,2268.9560836412365,760.7423828812603) translate(60.70987654320988 21.15277777777778)"/><use xlink:href="#h" transform="matrix(1,0,0,1,2268.9560836412365,760.7423828812603) translate(144.59876543209876 21.15277777777778)"/><use xlink:href="#i" transform="matrix(1,0,0,1,2268.9560836412365,760.7423828812603) translate(62.623456790123456 47.81944444444444)"/><use xlink:href="#j" transform="matrix(1,0,0,1,2268.9560836412365,760.7423828812603) translate(68.79629629629629 47.81944444444444)"/><path d="M2440.7 683.82a6 6 0 0 1 6-6h160.87a6 6 0 0 1 6 6v50.75a6 6 0 0 1-6 6H2446.7a6 6 0 0 1-6-6z" stroke="#000" stroke-opacity="0" stroke-width="2" fill="#fff" fill-opacity="0"/><use xlink:href="#k" transform="matrix(1,0,0,1,2445.7073623889305,682.8153935185195) translate(41.46913580246914 21.09027777777778)"/><use xlink:href="#l" transform="matrix(1,0,0,1,2445.7073623889305,682.8153935185195) translate(96.8395061728395 21.09027777777778)"/><use xlink:href="#m" transform="matrix(1,0,0,1,2445.7073623889305,682.8153935185195) translate(41.407407407407405 47.75694444444444)"/><path d="M2527.14 740.82v22.85" stroke="#5e5e5e" stroke-width=".5" fill="none"/><path d="M2527.4 740.83h-.5v-.26h.5z" stroke="#5e5e5e" stroke-width=".05" fill="#5e5e5e"/><path d="M2527.14 778.2l-4.64-14.28h9.27z" stroke="#5e5e5e" stroke-width=".5" fill="#5e5e5e"/><path d="M2535.18 896.9a6 6 0 0 1 6-6h128a6 6 0 0 1 6 6v108a6 6 0 0 1-6 6h-128a6 6 0 0 1-6-6z" stroke="#000" stroke-opacity="0" stroke-width="2" fill="#fff" fill-opacity="0"/><use xlink:href="#k" transform="matrix(1,0,0,1,2540.182228720074,895.8937888979275) translate(24.96913580246914 32.77777777777778)"/><use xlink:href="#l" transform="matrix(1,0,0,1,2540.182228720074,895.8937888979275) translate(80.3395061728395 32.77777777777778)"/><use xlink:href="#n" transform="matrix(1,0,0,1,2540.182228720074,895.8937888979275) translate(23.055555555555557 59.44444444444445)"/><use xlink:href="#l" transform="matrix(1,0,0,1,2540.182228720074,895.8937888979275) translate(82.25308641975309 59.44444444444445)"/><use xlink:href="#o" transform="matrix(1,0,0,1,2540.182228720074,895.8937888979275) translate(-6.512345679012341 86.11111111111111)"/><path d="M2605.18 889.9v-51.4" stroke="#5e5e5e" stroke-width="2" fill="none"/><path d="M2606.18 890.9h-2v-1.03h2z" stroke="#5e5e5e" stroke-width=".05" fill="#5e5e5e"/><path d="M2605.18 823.24l4.64 14.26h-9.27z" stroke="#5e5e5e" stroke-width="2" fill="#5e5e5e"/><path d="M2442.37 676a6 6 0 0 1 6-6h427.3a6 6 0 0 1 6 6v318a6 6 0 0 1-6 6h-427.3a6 6 0 0 1-6-6z" fill-opacity="0"/><path d="M2468.72 670h20.35m10.17 0h20.35m10.16 0h20.35m10.18 0h20.35m10.17 0h20.35m10.17 0h20.35m10.18 0h20.34m10.17 0h20.34m10.2 0h20.34m10.17 0h20.36m10.17 0h20.35m10.17 0h20.35m10.17 0h20.35m10.17 0h10.17l.93.07.92.22.87.35.8.5.7.6.62.72.5.8.35.88.22.9.07.95v9.64m0 9.63v19.27m0 9.64v19.28m0 9.63v19.26m0 9.64v19.27m0 9.64v19.28m0 9.64v19.27m0 9.63V888m0 9.64v19.27m0 9.64v19.28m0 9.63v19.28m0 9.63V994l-.08.94-.23.9-.36.88-.48.8-.6.72-.73.6-.8.5-.88.37-.92.23-.93.07h-10.18m-10.18 0h-20.35m-10.17 0h-20.35m-10.17 0h-20.35m-10.17 0h-20.35m-10.16 0h-20.35m-10.2 0h-20.33m-10.18 0h-20.35m-10.18 0h-20.35m-10.17 0h-20.35m-10.17 0h-20.35m-10.17 0h-20.34m-10.17 0h-20.36m-10.17 0h-20.35m-10.17 0h-10.18l-.93-.07-.92-.22-.87-.35-.8-.5-.72-.6-.6-.72-.5-.8-.36-.88-.22-.9-.08-.95v-9.64m0-9.63v-19.27m0-9.64v-19.28m0-9.63v-19.26m0-9.64v-19.27m0-9.64V839.8m0-9.64V810.9m0-9.63V782m0-9.64V753.1m0-9.64v-19.28m0-9.63v-19.28m0-9.63V676l.08-.94.22-.9.36-.88.5-.8.6-.72.72-.6.8-.5.87-.37.9-.23.95-.07h10.18" stroke="#5e5e5e" stroke-width="2" fill="none"/><path d="M2528.65 593.24a6 6 0 0 1 6-6h228a6 6 0 0 1 6 6v51.33a6 6 0 0 1-6 6h-228a6 6 0 0 1-6-6z" stroke="#000" stroke-opacity="0" stroke-width="2" fill="#fff" fill-opacity="0"/><g><use xlink:href="#p" transform="matrix(1,0,0,1,2533.6460068132355,592.2410300925931) translate(51.635802469135804 21.15277777777778)"/><use xlink:href="#q" transform="matrix(1,0,0,1,2533.6460068132355,592.2410300925931) translate(55.895061728395056 47.81944444444444)"/></g><defs><path fill="#3a414a" d="M118-107v75H92v-75H18v-26h74v-75h26v75h74v26h-74" id="r"/><use transform="matrix(0.06172839506172839,0,0,0.06172839506172839,0,0)" xlink:href="#r" id="a"/><path fill="#3a414a" d="M16-82v-28h88v28H16" id="s"/><use transform="matrix(0.06172839506172839,0,0,0.06172839506172839,0,0)" xlink:href="#s" id="b"/><path fill="#3a414a" d="M205 0l-28-72H64L36 0H1l101-248h38L239 0h-34zm-38-99l-47-123c-12 45-31 82-46 123h93" id="t"/><path fill="#3a414a" d="M210-169c-67 3-38 105-44 169h-31v-121c0-29-5-50-35-48C34-165 62-65 56 0H25l-1-190h30c1 10-1 24 2 32 10-44 99-50 107 0 11-21 27-35 58-36 85-2 47 119 55 194h-31v-121c0-29-5-49-35-48" id="u"/><path fill="#3a414a" d="M115-194c55 1 70 41 70 98S169 2 115 4C84 4 66-9 55-30l1 105H24l-1-265h31l2 30c10-21 28-34 59-34zm-8 174c40 0 45-34 45-75s-6-73-45-74c-42 0-51 32-51 76 0 43 10 73 51 73" id="v"/><path fill="#3a414a" d="M24 0v-261h32V0H24" id="w"/><path fill="#3a414a" d="M24-231v-30h32v30H24zM24 0v-190h32V0H24" id="x"/><path fill="#3a414a" d="M101-234c-31-9-42 10-38 44h38v23H63V0H32v-167H5v-23h27c-7-52 17-82 69-68v24" id="y"/><path fill="#3a414a" d="M96-169c-40 0-48 33-48 73s9 75 48 75c24 0 41-14 43-38l32 2c-6 37-31 61-74 61-59 0-76-41-82-99-10-93 101-131 147-64 4 7 5 14 7 22l-32 3c-4-21-16-35-41-35" id="z"/><path fill="#3a414a" d="M141-36C126-15 110 5 73 4 37 3 15-17 15-53c-1-64 63-63 125-63 3-35-9-54-41-54-24 1-41 7-42 31l-33-3c5-37 33-52 76-52 45 0 72 20 72 64v82c-1 20 7 32 28 27v20c-31 9-61-2-59-35zM48-53c0 20 12 33 32 33 41-3 63-29 60-74-43 2-92-5-92 41" id="A"/><path fill="#3a414a" d="M85-194c31 0 48 13 60 33l-1-100h32l1 261h-30c-2-10 0-23-3-31C134-8 116 4 85 4 32 4 16-35 15-94c0-66 23-100 70-100zm9 24c-40 0-46 34-46 75 0 40 6 74 45 74 42 0 51-32 51-76 0-42-9-74-50-73" id="B"/><path fill="#3a414a" d="M100-194c62-1 85 37 85 99 1 63-27 99-86 99S16-35 15-95c0-66 28-99 85-99zM99-20c44 1 53-31 53-75 0-43-8-75-51-75s-53 32-53 75 10 74 51 75" id="C"/><path fill="#3a414a" d="M114-163C36-179 61-72 57 0H25l-1-190h30c1 12-1 29 2 39 6-27 23-49 58-41v29" id="D"/><g id="c"><use transform="matrix(0.06172839506172839,0,0,0.06172839506172839,0,0)" xlink:href="#t"/><use transform="matrix(0.06172839506172839,0,0,0.06172839506172839,14.814814814814813,0)" xlink:href="#u"/><use transform="matrix(0.06172839506172839,0,0,0.06172839506172839,33.2716049382716,0)" xlink:href="#v"/><use transform="matrix(0.06172839506172839,0,0,0.06172839506172839,45.61728395061728,0)" xlink:href="#w"/><use transform="matrix(0.06172839506172839,0,0,0.06172839506172839,50.49382716049382,0)" xlink:href="#x"/><use transform="matrix(0.06172839506172839,0,0,0.06172839506172839,55.37037037037037,0)" xlink:href="#y"/><use transform="matrix(0.06172839506172839,0,0,0.06172839506172839,61.54320987654321,0)" xlink:href="#x"/><use transform="matrix(0.06172839506172839,0,0,0.06172839506172839,66.41975308641975,0)" xlink:href="#z"/><use transform="matrix(0.06172839506172839,0,0,0.06172839506172839,77.53086419753086,0)" xlink:href="#A"/><use transform="matrix(0.06172839506172839,0,0,0.06172839506172839,89.87654320987654,0)" xlink:href="#B"/><use transform="matrix(0.06172839506172839,0,0,0.06172839506172839,102.22222222222223,0)" xlink:href="#C"/><use transform="matrix(0.06172839506172839,0,0,0.06172839506172839,114.56790123456791,0)" xlink:href="#D"/></g><path fill="#3a414a" d="M59-47c-2 24 18 29 38 22v24C64 9 27 4 27-40v-127H5v-23h24l9-43h21v43h35v23H59v120" id="E"/><path fill="#3a414a" d="M84 4C-5 8 30-112 23-190h32v120c0 31 7 50 39 49 72-2 45-101 50-169h31l1 190h-30c-1-10 1-25-2-33-11 22-28 36-60 37" id="F"/><g id="d"><use transform="matrix(0.06172839506172839,0,0,0.06172839506172839,0,0)" xlink:href="#t"/><use transform="matrix(0.06172839506172839,0,0,0.06172839506172839,14.814814814814813,0)" xlink:href="#z"/><use transform="matrix(0.06172839506172839,0,0,0.06172839506172839,25.925925925925924,0)" xlink:href="#E"/><use transform="matrix(0.06172839506172839,0,0,0.06172839506172839,32.098765432098766,0)" xlink:href="#F"/><use transform="matrix(0.06172839506172839,0,0,0.06172839506172839,44.44444444444444,0)" xlink:href="#A"/><use transform="matrix(0.06172839506172839,0,0,0.06172839506172839,56.79012345679012,0)" xlink:href="#B"/><use transform="matrix(0.06172839506172839,0,0,0.06172839506172839,69.1358024691358,0)" xlink:href="#C"/><use transform="matrix(0.06172839506172839,0,0,0.06172839506172839,81.48148148148148,0)" xlink:href="#D"/></g><path fill="#3a414a" d="M30-248c87 1 191-15 191 75 0 78-77 80-158 76V0H30v-248zm33 125c57 0 124 11 124-50 0-59-68-47-124-48v98" id="G"/><path fill="#3a414a" d="M117-194c89-4 53 116 60 194h-32v-121c0-31-8-49-39-48C34-167 62-67 57 0H25l-1-190h30c1 10-1 24 2 32 11-22 29-35 61-36" id="H"/><g id="e"><use transform="matrix(0.06172839506172839,0,0,0.06172839506172839,0,0)" xlink:href="#G"/><use transform="matrix(0.06172839506172839,0,0,0.06172839506172839,14.814814814814813,0)" xlink:href="#w"/><use transform="matrix(0.06172839506172839,0,0,0.06172839506172839,19.691358024691354,0)" xlink:href="#A"/><use transform="matrix(0.06172839506172839,0,0,0.06172839506172839,32.03703703703703,0)" xlink:href="#H"/><use transform="matrix(0.06172839506172839,0,0,0.06172839506172839,44.38271604938271,0)" xlink:href="#E"/><use transform="matrix(0.06172839506172839,0,0,0.06172839506172839,50.55555555555555,0)" xlink:href="#A"/></g><path fill="#3a414a" d="M185-189c-5-48-123-54-124 2 14 75 158 14 163 119 3 78-121 87-175 55-17-10-28-26-33-46l33-7c5 56 141 63 141-1 0-78-155-14-162-118-5-82 145-84 179-34 5 7 8 16 11 25" id="I"/><path fill="#3a414a" d="M100-194c63 0 86 42 84 106H49c0 40 14 67 53 68 26 1 43-12 49-29l28 8c-11 28-37 45-77 45C44 4 14-33 15-96c1-61 26-98 85-98zm52 81c6-60-76-77-97-28-3 7-6 17-6 28h103" id="J"/><path fill="#3a414a" d="M135-143c-3-34-86-38-87 0 15 53 115 12 119 90S17 21 10-45l28-5c4 36 97 45 98 0-10-56-113-15-118-90-4-57 82-63 122-42 12 7 21 19 24 35" id="K"/><g id="f"><use transform="matrix(0.06172839506172839,0,0,0.06172839506172839,0,0)" xlink:href="#I"/><use transform="matrix(0.06172839506172839,0,0,0.06172839506172839,14.814814814814813,0)" xlink:href="#J"/><use transform="matrix(0.06172839506172839,0,0,0.06172839506172839,27.160493827160494,0)" xlink:href="#H"/><use transform="matrix(0.06172839506172839,0,0,0.06172839506172839,39.50617283950617,0)" xlink:href="#K"/><use transform="matrix(0.06172839506172839,0,0,0.06172839506172839,50.61728395061728,0)" xlink:href="#C"/><use transform="matrix(0.06172839506172839,0,0,0.06172839506172839,62.962962962962955,0)" xlink:href="#D"/></g><path fill="#3a414a" d="M30 0v-248h187v28H63v79h144v27H63v87h162V0H30" id="L"/><g id="g"><use transform="matrix(0.06172839506172839,0,0,0.06172839506172839,0,0)" xlink:href="#L"/><use transform="matrix(0.06172839506172839,0,0,0.06172839506172839,14.814814814814813,0)" xlink:href="#H"/><use transform="matrix(0.06172839506172839,0,0,0.06172839506172839,27.160493827160494,0)" xlink:href="#E"/><use transform="matrix(0.06172839506172839,0,0,0.06172839506172839,33.333333333333336,0)" xlink:href="#D"/><use transform="matrix(0.06172839506172839,0,0,0.06172839506172839,40.67901234567901,0)" xlink:href="#A"/><use transform="matrix(0.06172839506172839,0,0,0.06172839506172839,53.02469135802469,0)" xlink:href="#B"/><use transform="matrix(0.06172839506172839,0,0,0.06172839506172839,65.37037037037037,0)" xlink:href="#A"/></g><g id="h"><use transform="matrix(0.06172839506172839,0,0,0.06172839506172839,0,0)" xlink:href="#B"/><use transform="matrix(0.06172839506172839,0,0,0.06172839506172839,12.345679012345679,0)" xlink:href="#J"/></g><g id="j"><use transform="matrix(0.06172839506172839,0,0,0.06172839506172839,0,0)" xlink:href="#D"/><use transform="matrix(0.06172839506172839,0,0,0.06172839506172839,7.345679012345679,0)" xlink:href="#J"/><use transform="matrix(0.06172839506172839,0,0,0.06172839506172839,19.691358024691358,0)" xlink:href="#y"/><use transform="matrix(0.06172839506172839,0,0,0.06172839506172839,25.864197530864196,0)" xlink:href="#J"/><use transform="matrix(0.06172839506172839,0,0,0.06172839506172839,38.20987654320987,0)" xlink:href="#D"/><use transform="matrix(0.06172839506172839,0,0,0.06172839506172839,45.55555555555555,0)" xlink:href="#J"/><use transform="matrix(0.06172839506172839,0,0,0.06172839506172839,57.90123456790123,0)" xlink:href="#H"/><use transform="matrix(0.06172839506172839,0,0,0.06172839506172839,70.24691358024691,0)" xlink:href="#z"/><use transform="matrix(0.06172839506172839,0,0,0.06172839506172839,81.35802469135803,0)" xlink:href="#x"/><use transform="matrix(0.06172839506172839,0,0,0.06172839506172839,86.23456790123457,0)" xlink:href="#A"/></g><g id="k"><use transform="matrix(0.06172839506172839,0,0,0.06172839506172839,0,0)" xlink:href="#L"/><use transform="matrix(0.06172839506172839,0,0,0.06172839506172839,14.814814814814813,0)" xlink:href="#D"/><use transform="matrix(0.06172839506172839,0,0,0.06172839506172839,22.160493827160494,0)" xlink:href="#D"/><use transform="matrix(0.06172839506172839,0,0,0.06172839506172839,29.50617283950617,0)" xlink:href="#C"/><use transform="matrix(0.06172839506172839,0,0,0.06172839506172839,41.85185185185185,0)" xlink:href="#D"/></g><g id="l"><use transform="matrix(0.06172839506172839,0,0,0.06172839506172839,0,0)" xlink:href="#B"/><use transform="matrix(0.06172839506172839,0,0,0.06172839506172839,12.345679012345679,0)" xlink:href="#J"/></g><g id="m"><use transform="matrix(0.06172839506172839,0,0,0.06172839506172839,0,0)" xlink:href="#B"/><use transform="matrix(0.06172839506172839,0,0,0.06172839506172839,12.345679012345679,0)" xlink:href="#J"/><use transform="matrix(0.06172839506172839,0,0,0.06172839506172839,24.691358024691358,0)" xlink:href="#E"/><use transform="matrix(0.06172839506172839,0,0,0.06172839506172839,30.864197530864196,0)" xlink:href="#J"/><use transform="matrix(0.06172839506172839,0,0,0.06172839506172839,43.20987654320987,0)" xlink:href="#z"/><use transform="matrix(0.06172839506172839,0,0,0.06172839506172839,54.32098765432099,0)" xlink:href="#E"/><use transform="matrix(0.06172839506172839,0,0,0.06172839506172839,60.49382716049383,0)" xlink:href="#C"/><use transform="matrix(0.06172839506172839,0,0,0.06172839506172839,72.8395061728395,0)" xlink:href="#D"/></g><path fill="#3a414a" d="M118-194c89-4 53 116 60 194h-32v-121c0-31-8-49-39-48C35-167 63-67 58 0H26l-1-190h30c1 10-1 24 2 32 11-22 29-35 61-36zm47-64c-3 23-9 48-36 47-26-1-65-44-74 0H39c4-23 8-48 36-47s64 44 74 0h16" id="M"/><g id="n"><use transform="matrix(0.06172839506172839,0,0,0.06172839506172839,0,0)" xlink:href="#K"/><use transform="matrix(0.06172839506172839,0,0,0.06172839506172839,11.11111111111111,0)" xlink:href="#J"/><use transform="matrix(0.06172839506172839,0,0,0.06172839506172839,23.45679012345679,0)" xlink:href="#M"/><use transform="matrix(0.06172839506172839,0,0,0.06172839506172839,35.80246913580247,0)" xlink:href="#A"/><use transform="matrix(0.06172839506172839,0,0,0.06172839506172839,48.148148148148145,0)" xlink:href="#w"/></g><g id="o"><use transform="matrix(0.06172839506172839,0,0,0.06172839506172839,0,0)" xlink:href="#A"/><use transform="matrix(0.06172839506172839,0,0,0.06172839506172839,12.345679012345679,0)" xlink:href="#z"/><use transform="matrix(0.06172839506172839,0,0,0.06172839506172839,23.45679012345679,0)" xlink:href="#z"/><use transform="matrix(0.06172839506172839,0,0,0.06172839506172839,34.5679012345679,0)" xlink:href="#x"/><use transform="matrix(0.06172839506172839,0,0,0.06172839506172839,39.44444444444444,0)" xlink:href="#C"/><use transform="matrix(0.06172839506172839,0,0,0.06172839506172839,51.79012345679012,0)" xlink:href="#H"/><use transform="matrix(0.06172839506172839,0,0,0.06172839506172839,64.1358024691358,0)" xlink:href="#A"/><use transform="matrix(0.06172839506172839,0,0,0.06172839506172839,76.48148148148148,0)" xlink:href="#u"/><use transform="matrix(0.06172839506172839,0,0,0.06172839506172839,94.93827160493827,0)" xlink:href="#x"/><use transform="matrix(0.06172839506172839,0,0,0.06172839506172839,99.81481481481481,0)" xlink:href="#J"/><use transform="matrix(0.06172839506172839,0,0,0.06172839506172839,112.1604938271605,0)" xlink:href="#H"/><use transform="matrix(0.06172839506172839,0,0,0.06172839506172839,124.50617283950618,0)" xlink:href="#E"/><use transform="matrix(0.06172839506172839,0,0,0.06172839506172839,130.679012345679,0)" xlink:href="#C"/></g><path d="M67-125c0 53 21 87 73 88 37 1 54-22 65-47l45 17C233-25 199 4 140 4 58 4 20-42 15-125 8-235 124-281 211-232c18 10 29 29 36 50l-46 12c-8-25-30-41-62-41-52 0-71 34-72 86" id="N"/><path d="M110-194c64 0 96 36 96 99 0 64-35 99-97 99-61 0-95-36-95-99 0-62 34-99 96-99zm-1 164c35 0 45-28 45-65 0-40-10-65-43-65-34 0-45 26-45 65 0 36 10 65 43 65" id="O"/><path d="M135-194c87-1 58 113 63 194h-50c-7-57 23-157-34-157-59 0-34 97-39 157H25l-1-190h47c2 12-1 28 3 38 12-26 28-41 61-42" id="P"/><path d="M115-3C79 11 28 4 28-45v-112H4v-33h27l15-45h31v45h36v33H77v99c-1 23 16 31 38 25v30" id="Q"/><path d="M135-150c-39-12-60 13-60 57V0H25l-1-190h47c2 13-1 29 3 40 6-28 27-53 61-41v41" id="R"/><path d="M25 0v-261h50V0H25" id="S"/><path d="M133-34C117-15 103 5 69 4 32 3 11-16 11-54c-1-60 55-63 116-61 1-26-3-47-28-47-18 1-26 9-28 27l-52-2c7-38 36-58 82-57s74 22 75 68l1 82c-1 14 12 18 25 15v27c-30 8-71 5-69-32zm-48 3c29 0 43-24 42-57-32 0-66-3-65 30 0 17 8 27 23 27" id="T"/><path d="M88-194c31-1 46 15 58 34l-1-101h50l1 261h-48c-2-10 0-23-3-31C134-8 116 4 84 4 32 4 16-41 15-95c0-56 19-97 73-99zm17 164c33 0 40-30 41-66 1-37-9-64-41-64s-38 30-39 65c0 43 13 65 39 65" id="U"/><g id="p"><use transform="matrix(0.06172839506172839,0,0,0.06172839506172839,0,0)" xlink:href="#N"/><use transform="matrix(0.06172839506172839,0,0,0.06172839506172839,15.987654320987653,0)" xlink:href="#O"/><use transform="matrix(0.06172839506172839,0,0,0.06172839506172839,29.50617283950617,0)" xlink:href="#P"/><use transform="matrix(0.06172839506172839,0,0,0.06172839506172839,43.02469135802469,0)" xlink:href="#Q"/><use transform="matrix(0.06172839506172839,0,0,0.06172839506172839,50.37037037037037,0)" xlink:href="#R"/><use transform="matrix(0.06172839506172839,0,0,0.06172839506172839,59.01234567901234,0)" xlink:href="#O"/><use transform="matrix(0.06172839506172839,0,0,0.06172839506172839,72.53086419753086,0)" xlink:href="#S"/><use transform="matrix(0.06172839506172839,0,0,0.06172839506172839,78.7037037037037,0)" xlink:href="#T"/><use transform="matrix(0.06172839506172839,0,0,0.06172839506172839,91.04938271604938,0)" xlink:href="#U"/><use transform="matrix(0.06172839506172839,0,0,0.06172839506172839,104.5679012345679,0)" xlink:href="#O"/><use transform="matrix(0.06172839506172839,0,0,0.06172839506172839,118.08641975308642,0)" xlink:href="#R"/></g><path d="M85 4C-2 5 27-109 22-190h50c7 57-23 150 33 157 60-5 35-97 40-157h50l1 190h-47c-2-12 1-28-3-38-12 25-28 42-61 42" id="V"/><path d="M220-157c-53 9-28 100-34 157h-49v-107c1-27-5-49-29-50C55-147 81-57 75 0H25l-1-190h47c2 12-1 28 3 38 10-53 101-56 108 0 13-22 24-43 59-42 82 1 51 116 57 194h-49v-107c-1-25-5-48-29-50" id="W"/><path d="M132-34C116-15 102 5 68 4 31 3 10-16 10-54c-1-60 55-63 116-61 1-26-3-47-28-47-18 1-26 9-28 27l-52-2c7-38 36-58 82-57s74 22 75 68l1 82c-1 14 12 18 25 15v27c-30 8-71 5-69-32zm-48 3c29 0 43-24 42-57-32 0-66-3-65 30 0 17 8 27 23 27zM66-208v-5l45-51h45v8l-60 48H66" id="X"/><path d="M25-224v-37h50v37H25zM25 0v-190h50V0H25" id="Y"/><path d="M190-63c-7 42-38 67-86 67-59 0-84-38-90-98-12-110 154-137 174-36l-49 2c-2-19-15-32-35-32-30 0-35 28-38 64-6 74 65 87 74 30" id="Z"/><g id="q"><use transform="matrix(0.06172839506172839,0,0,0.06172839506172839,0,0)" xlink:href="#T"/><use transform="matrix(0.06172839506172839,0,0,0.06172839506172839,12.345679012345679,0)" xlink:href="#V"/><use transform="matrix(0.06172839506172839,0,0,0.06172839506172839,25.864197530864196,0)" xlink:href="#Q"/><use transform="matrix(0.06172839506172839,0,0,0.06172839506172839,33.20987654320987,0)" xlink:href="#O"/><use transform="matrix(0.06172839506172839,0,0,0.06172839506172839,46.72839506172839,0)" xlink:href="#W"/><use transform="matrix(0.06172839506172839,0,0,0.06172839506172839,66.48148148148148,0)" xlink:href="#X"/><use transform="matrix(0.06172839506172839,0,0,0.06172839506172839,78.82716049382717,0)" xlink:href="#Q"/><use transform="matrix(0.06172839506172839,0,0,0.06172839506172839,86.17283950617285,0)" xlink:href="#Y"/><use transform="matrix(0.06172839506172839,0,0,0.06172839506172839,92.34567901234568,0)" xlink:href="#Z"/><use transform="matrix(0.06172839506172839,0,0,0.06172839506172839,104.69135802469137,0)" xlink:href="#O"/></g></defs></g></svg>