<svg xmlns="http://www.w3.org/2000/svg" xmlns:xlink="http://www.w3.org/1999/xlink" xmlns:lucid="lucid" width="660" height="486.17"><g transform="translate(-4440 -750)" lucid:page-tab-id="iWyiPFsZhNO."><path d="M0 0h5484.6v2581.67H0z" fill="#fff"/><path d="M4701 1202a1 1 0 0 1 1-1h296a1 1 0 0 1 1 1 1 1 0 0 1-1 1h-296a1 1 0 0 1-1-1zM5001 941a1 1 0 0 1 1 1v256a1 1 0 0 1-1 1 1 1 0 0 1-1-1V942a1 1 0 0 1 1-1zM4701 941a1 1 0 0 1 1 1v256a1 1 0 0 1-1 1 1 1 0 0 1-1-1V942a1 1 0 0 1 1-1z" stroke="#5e5e5e" stroke-width="2" fill="none"/><path d="M4700.25 980.5a.25.25 0 0 1 .25-.25h301a.25.25 0 0 1 .25.25.25.25 0 0 1-.25.25h-301a.25.25 0 0 1-.25-.25zM4801.25 1000.5a.25.25 0 0 1 .25-.25h99a.25.25 0 0 1 .25.25.25.25 0 0 1-.25.25h-99a.25.25 0 0 1-.25-.25zM4831.8 1020.5a.25.25 0 0 1 .26-.25h39.88a.25.25 0 0 1 .25.25.25.25 0 0 1-.26.25h-39.88a.25.25 0 0 1-.25-.25z" stroke="#5e5e5e" stroke-width=".5" fill="none"/><path d="M4551.66 1173.83a6 6 0 0 1 6-6H4614a6 6 0 0 1 6 6v56.34a6 6 0 0 1-6 6h-56.34a6 6 0 0 1-6-6z" fill="none"/><path d="M4558.5 1184.9v34.2l26.33-17.1zm26.33 17.1h2zm2 0l26.34-17.1v34.2zM4585.83 1202v-34.17m-17.1 0h34.18" stroke="#5e5e5e" fill="#fff"/><use xlink:href="#a" transform="matrix(1,0,0,1,4531.657362001761,1241.1713189991196) translate(2.70987654320988 17.77777777777778)"/><use xlink:href="#b" transform="matrix(1,0,0,1,4531.657362001761,1241.1713189991196) translate(81.59876543209876 17.77777777777778)"/><use xlink:href="#c" transform="matrix(1,0,0,1,4531.657362001761,1241.1713189991196) translate(2.092592592592588 44.44444444444444)"/><path d="M4971.56 964.2c0 14.72-11.55 26.64-25.78 26.64-14.24 0-25.78-11.92-25.78-26.63zm-25.78 0v-53.25" stroke="#5e5e5e" stroke-width="2" fill="#fff"/><path d="M4945.8 909.95V861" stroke="#5e5e5e" stroke-width="2" fill="none"/><path d="M4946.8 913.95h-.02v-3h-1.98v-1.03h2z" stroke="#5e5e5e" stroke-width=".05" fill="#5e5e5e"/><path d="M4945.8 861.03V860" stroke="#5e5e5e" stroke-width="2" fill="none"/><path d="M4872.44 819.08h140v60h-140z" fill="none"/><path d="M4872.44 861.08h42c0 4.86 3.08 7.98 7 7.98s7-3.12 7-6.96c0-3.9-3.08-7.02-7-7.02s-7 3.12-7 7.02m14-1.02l37.8-24m4.2 24c0 4.86 3.08 7.98 7 7.98s7-3.12 7-6.96c0-3.9-3.08-7.02-7-7.02s-7 3.12-7 7.02m14-1.02h28" stroke="#5e5e5e" stroke-width="2" fill="#fff"/><path d="M4600 879.32a6 6 0 0 1 6-6h58a6 6 0 0 1 6 6v58a6 6 0 0 1-6 6h-58a6 6 0 0 1-6-6z" fill="none"/><path d="M4607 908.32v35l27-17.5zm27 17.5h2zm2 0l27-17.5v35zM4635 925.82v-17.5zm0-17.5h-17.5v-35h35v35z" stroke="#5e5e5e" fill="#fff"/><use xlink:href="#d" transform="matrix(1,0,0,1,4618.9,876.8147240035206) translate(10 19.6)"/><path d="M4871.44 861.08h-15a6 6 0 0 0-6 6v14.68a6 6 0 0 1-6 6H4654" stroke="#5e5e5e" stroke-width="2" fill="none"/><path d="M4872.44 862.08h-1.02v-2h1.02z" stroke="#5e5e5e" stroke-width=".05" fill="#5e5e5e"/><path d="M4654.03 887.76H4650M4635 871.82V756a6 6 0 0 1 6-6h433a6 6 0 0 1 6 6v33" stroke="#5e5e5e" stroke-width="2" fill="none"/><path d="M4636 872.82h-2v-1.03h2zM5079 790v-1.03h2V790z" stroke="#5e5e5e" stroke-width=".05" fill="#5e5e5e"/><path d="M5100 790v60h-40v-60z" fill="none"/><path d="M5080 790v24m-8 0h16m-12 6h8m-12 6h16m-12 6h8m-4 0v18" stroke="#5e5e5e" stroke-width="2" fill="#fff"/><use xlink:href="#e" transform="matrix(6.123233995736766e-17,1,-1,6.123233995736766e-17,5068.8,790) translate(6.7592592592592595 19.444444444444443)"/><path d="M5013.44 861.08H5074a6 6 0 0 0 6-6V851" stroke="#5e5e5e" stroke-width="2" fill="none"/><path d="M5013.47 862.08h-1.03v-2h1.03zM5081 851.03h-2V850h2z" stroke="#5e5e5e" stroke-width=".05" fill="#5e5e5e"/><path d="M4632.17 1202.5h66.8" stroke="#5e5e5e" stroke-width="2" fill="none"/><path d="M4616.9 1202.5l14.27-4.63v9.27z" stroke="#5e5e5e" stroke-width="2" fill="#5e5e5e"/><path d="M4700.02 1201.7l-.1 1.3h.35l.1.18.2.24.1.08h-1.74v-2h1.14z" stroke="#5e5e5e" stroke-width=".05" fill="#5e5e5e"/><path d="M4557 1202.5h-38.5M4556.97 1202.5h4.02" stroke="#5e5e5e" stroke-width="2" fill="none"/><path d="M4503.24 1202.5l14.26-4.63v9.27z" stroke="#5e5e5e" stroke-width="2" fill="#5e5e5e"/><path d="M4461 930.24h127M4461.03 930.24H4460" stroke="#5e5e5e" stroke-width="2" fill="none"/><path d="M4603.26 930.24l-14.26 4.63v-9.27z" stroke="#5e5e5e" stroke-width="2" fill="#5e5e5e"/><path d="M4664.5 925.78H4802a6 6 0 0 1 6 6v29.72M4664.53 925.78h-4.03" stroke="#5e5e5e" stroke-width="2" fill="none"/><path d="M4808 976.76l-4.64-14.26h9.28z" stroke="#5e5e5e" stroke-width="2" fill="#5e5e5e"/><path d="M4440 898.94h139.47v22.12H4440z" fill="#fff" fill-opacity="0"/><path d="M4451.18 903.9h-.52c-.3-1.8-.67-2.14-3.15-2.14h-2.7c-.58 0-.7.17-.7.8V907h2.92c1.72 0 2.13-.34 2.3-1.94h.48v4.77h-.47c-.16-1.68-.55-2-2.3-2h-2.92v4.4c0 1.57.3 1.84 1.88 1.92v.38h-5.75v-.38c1.55-.1 1.8-.35 1.8-2.13v-8.76c0-1.5-.2-1.76-1.78-1.88v-.4h10.82M4456.64 914.53h-4.83v-.3c1.3-.1 1.6-.45 1.6-1.58v-9.6c0-.98-.22-1.3-.88-1.3-.16 0-.42 0-.75.03v-.32c1.4-.35 2.17-.56 3.23-.9l.1.08v12.12c0 1.12.23 1.4 1.54 1.47v.3M4466.9 913.5v.3c-1.03.3-1.77.5-2.8.92l-.1-.06v-1.68h-.03c-1 1.37-2.17 1.76-2.93 1.76-1.58 0-2.5-1.04-2.5-2.62v-5.14c0-1.02-.28-1.3-1.27-1.37v-.27h3v6.6c0 .95.65 1.62 1.44 1.62.6 0 1.22-.18 1.73-.63.33-.3.47-.47.47-1.2V907c0-1.08-.28-1.25-1.5-1.33v-.34h3.22v7c0 .96.23 1.18 1.17 1.18h.1"/><path d="M4471.3 901.6c0 .6-.46 1.04-1.07 1.04-.57 0-1.02-.45-1.02-1.04 0-.57.48-1.04 1.05-1.04.57 0 1.04.47 1.04 1.04m-.03 3.58v9.36c0 2.9-1.2 4.46-3.48 4.46-1.1 0-1.9-.47-1.9-1.13 0-.45.36-.8.83-.8.33 0 .6.2.98.66.36.43.56.57.87.57.3 0 .57-.16.7-.37.22-.4.28-.92.28-2.47v-7.76c0-.88-.18-1.23-.65-1.23-.2 0-.5 0-.82.06l-.1.02v-.32c1.2-.37 1.98-.64 3.2-1.1M4482.65 909.8c0 2.85-1.84 4.94-4.6 4.94-2.48 0-4.42-2.03-4.42-4.87 0-2.85 1.84-4.75 4.6-4.75 2.5 0 4.42 1.86 4.42 4.7m-1.84.54c0-1.4-.36-2.8-1-3.64-.5-.62-1.08-1.03-1.96-1.03-1.4 0-2.37 1.2-2.37 3.25 0 1.62.32 3.1 1.08 4.2.45.65 1.1 1.02 1.85 1.02 1.5 0 2.4-1.44 2.4-3.8M4493.64 914.53h-4.83v-.3c1.3-.1 1.6-.45 1.6-1.58v-9.6c0-.98-.22-1.3-.87-1.3-.16 0-.43 0-.76.03v-.32c1.4-.35 2.17-.56 3.23-.9l.1.08v12.12c0 1.12.23 1.4 1.54 1.47v.3M4495.1 904.16l3-3.03c.37-.37.56-.47.86-.47.45 0 .72.25.72.65 0 .34-.2.6-.6.87l-3.17 2h-.8m4.17 10.37h-4.85v-.3c1.4-.1 1.62-.28 1.62-1.83v-4.64c0-.96-.17-1.3-.68-1.3-.18 0-.5 0-.86.1v-.3l3.15-1.14.1.08v7.2c0 1.5.17 1.73 1.52 1.83v.3M4509.77 918.98h-4.83v-.35c1.45-.1 1.82-.4 1.82-1.56v-3.85c-.9 1-2.03 1.52-3.2 1.52-1.94 0-3.3-1.82-3.3-4.4 0-2.95 1.98-5.22 4.52-5.22.8 0 1.43.16 2.37.72l1.1-.66h.23v12.24c0 .86.2 1.1 1.3 1.2v.36m-3.02-7.04v-4.22c0-1.35-.63-2-1.9-2-1.74 0-2.83 1.47-2.83 3.88 0 1.4.45 2.75 1.15 3.34.4.37.94.55 1.53.55.67 0 1.36-.25 1.82-.66.16-.15.24-.43.24-.9M4519.86 913.5v.3c-1.05.3-1.78.5-2.8.92l-.1-.06v-1.68h-.05c-1 1.37-2.16 1.76-2.9 1.76-1.6 0-2.5-1.04-2.5-2.62v-5.14c0-1.02-.3-1.3-1.28-1.37v-.27h3v6.6c0 .95.64 1.62 1.44 1.62.6 0 1.2-.18 1.72-.63.33-.3.47-.47.47-1.2V907c0-1.08-.3-1.25-1.5-1.33v-.34h3.22v7c0 .96.23 1.18 1.17 1.18h.12M4523.95 901.6c0 .6-.45 1.04-1.06 1.04-.6 0-1.03-.45-1.03-1.04 0-.57.47-1.04 1.04-1.04.6 0 1.05.47 1.05 1.04m1.5 12.93h-4.85v-.3c1.4-.08 1.6-.27 1.6-1.82v-4.64c0-.96-.15-1.3-.66-1.3-.2 0-.5 0-.86.1v-.3l3.17-1.14.08.08v7.2c0 1.5.17 1.73 1.52 1.83v.3M4536.03 913.68l-3 1.06-.1-.06v-1.3c-.7.95-1.47 1.36-2.6 1.36-2.28 0-3.8-1.78-3.8-4.4 0-2.9 1.9-5.22 4.26-5.22.8 0 1.36.23 2.14.88v-3.2c0-.83-.2-1.04-.94-1.04-.17 0-.3 0-.45.02v-.32c1.3-.35 2.02-.56 3-.9l.1.04v11.6c0 .94.17 1.17.9 1.17l.48-.02v.33m-3.1-1.23v-4.7c0-1.1-.98-2.06-2.08-2.06-1.56 0-2.56 1.5-2.56 3.82 0 2.52 1.1 4.16 2.82 4.16.63 0 1.14-.23 1.5-.66.2-.2.32-.43.32-.57M4545.83 909.8c0 2.85-1.84 4.94-4.6 4.94-2.48 0-4.42-2.03-4.42-4.87 0-2.85 1.85-4.75 4.6-4.75 2.5 0 4.43 1.86 4.43 4.7m-1.84.54c0-1.4-.38-2.8-1.03-3.64-.5-.62-1.07-1.03-1.95-1.03-1.4 0-2.37 1.2-2.37 3.25 0 1.62.33 3.1 1.08 4.2.45.65 1.1 1.02 1.84 1.02 1.52 0 2.42-1.44 2.42-3.8M4556.06 906.3c0 .6-.5 1.1-1.12 1.1-.62 0-1.15-.5-1.15-1.1 0-.67.48-1.16 1.14-1.16.6 0 1.12.53 1.12 1.15m0 7.34c0 .6-.5 1.12-1.12 1.12-.62 0-1.15-.5-1.15-1.13 0-.65.48-1.14 1.14-1.14.6 0 1.12.52 1.12 1.13M4573 905.78l-2.67 10.68c-.06.2-.06.4-.06.6 0 .6.4.98 1 .98h.3l-.07.24h-5.12l.06-.25h.4c1.38 0 1.7-.83 1.9-1.6l.9-3.76h-.13c-1.36 1.9-2.6 2.1-3.33 2.1-1.3 0-1.82-1.18-1.82-2.34 0-2.52 1.64-5.04 3.46-6.22.65-.42 1.3-.7 1.87-.7 1 0 1.44.54 1.48 1.07h.06l.15-.8h1.66m-2.14 1.85c0-.88-.26-1.52-1-1.52-.43 0-.84.23-1.25.56-1.3 1.06-2.5 3.78-2.5 5.58 0 .56.18 1.3 1.06 1.3.35 0 .82-.1 1.18-.36 1.3-.92 2.52-3.25 2.52-5.56M4576.63 909.43c0 .37-.32.66-.7.66-.4 0-.7-.3-.7-.67 0-.36.3-.73.7-.73.38 0 .7.37.7.73m-.44 1.8l-1.34 5.27v.2c0 .1.08.15.18.15.32 0 .4-.17.92-.74l.2.16c-.5.65-1.24 1.52-1.95 1.52-.4 0-.57-.28-.57-.67 0-.16 0-.44 1.15-4.88l.03-.17c0-.25-.1-.32-.44-.32-.13 0-.3.03-.4.06l-.05-.25"/><path d="M4950.92 892.72H5100v18.23h-149.08z" fill="#fff" fill-opacity="0"/><path d="M4957.37 908.32h-6.08v-.4c1.7-.05 1.98-.3 1.98-1.9v-8.98c0-1.62-.25-1.78-2-1.88v-.4h6.1v.4c-1.73.08-2.02.32-2.02 1.88v8.98c0 1.54.33 1.85 2 1.9v.4M4967.66 908.32h-4.25l.03-.3c1.02-.1 1.27-.5 1.27-1.85v-4.08c0-1.46-.5-2.07-1.5-2.07-.67 0-1.16.24-2.1 1.16v5.64c0 .8.28 1.1 1.33 1.17v.32h-4.32v-.3c1.05-.1 1.28-.42 1.28-1.63v-4.98c0-1-.15-1.33-.72-1.33-.22 0-.45 0-.6.07v-.35c1.13-.33 1.8-.55 2.8-.92l.17.06v1.6h.03c1.06-1.2 2-1.66 2.94-1.66 1.56 0 2.42 1.13 2.42 3.15v4.53c0 1.1.24 1.33 1.24 1.43v.32M4978.04 907.46l-3 1.06-.1-.06v-1.3c-.68.95-1.46 1.36-2.6 1.36-2.28 0-3.8-1.78-3.8-4.4 0-2.9 1.9-5.22 4.26-5.22.82 0 1.37.23 2.15.88v-3.2c0-.83-.18-1.04-.94-1.04-.15 0-.28 0-.44.02v-.32c1.3-.35 2.03-.56 3-.9l.1.04v11.6c0 .94.17 1.17.9 1.17l.48-.02v.33m-3.1-1.23v-4.7c0-1.1-.97-2.06-2.08-2.06-1.55 0-2.55 1.52-2.55 3.83 0 2.52 1.1 4.16 2.83 4.16.63 0 1.15-.23 1.5-.66.2-.2.32-.43.32-.57M4981.9 895.38c0 .6-.44 1.04-1.05 1.04-.58 0-1.03-.45-1.03-1.04 0-.57.47-1.04 1.05-1.04.6 0 1.04.47 1.04 1.04m1.5 12.94h-4.85v-.3c1.42-.1 1.62-.28 1.62-1.83v-4.66c0-.96-.16-1.3-.68-1.3-.2 0-.5 0-.86.1v-.3l3.17-1.14.1.08v7.2c0 1.5.15 1.73 1.5 1.83v.32M4992.08 905.12l.3.2c-.67 1.25-1.08 1.85-1.7 2.34-.7.57-1.46.86-2.34.86-2.28 0-3.9-1.9-3.9-4.54 0-1.7.62-3.12 1.73-4.04.82-.67 1.8-1.04 2.76-1.04 1.72 0 3.15.96 3.15 2.1 0 .48-.43.87-.96.87-.45 0-.82-.35-.98-.94l-.13-.45c-.2-.76-.46-1-1.2-1-1.65 0-2.78 1.45-2.78 3.57 0 2.36 1.3 4 3.18 4 1.16 0 1.9-.5 2.88-1.93M5002.07 906.96v.58c-.6.78-1.15.98-1.84.98-.76 0-1.2-.4-1.3-1.5h-.03c-1.1 1.23-2.1 1.5-2.97 1.5-1.27 0-2.15-.78-2.15-2.13 0-1.07.64-1.87 1.43-2.4.63-.4 1.38-.8 3.7-1.66v-1.1c0-1.27-.68-1.85-1.6-1.85-.82 0-1.43.44-1.43 1 0 .36.12.42.12.85 0 .4-.42.84-.95.84-.43 0-.88-.4-.88-.95 0-.53.33-1.18 1.04-1.64.6-.35 1.45-.6 2.37-.6 1.14 0 1.92.33 2.4.92.5.6.6 1.02.6 2.27v3.9c0 .94.25 1.35.62 1.35.32 0 .52-.1.87-.4m-3.17-1.23v-2.9c-1.27.46-2.1.9-2.62 1.36-.5.45-.7.94-.7 1.58 0 1.08.6 1.57 1.4 1.57.42 0 .85-.1 1.2-.33.6-.4.72-.7.72-1.28M5012.18 907.46l-3 1.06-.1-.06v-1.3c-.7.95-1.47 1.36-2.6 1.36-2.28 0-3.8-1.78-3.8-4.4 0-2.9 1.9-5.22 4.26-5.22.82 0 1.37.23 2.15.88v-3.2c0-.83-.2-1.04-.95-1.04-.17 0-.3 0-.45.02v-.32c1.3-.35 2.02-.56 3-.9l.1.04v11.6c0 .94.17 1.17.9 1.17l.48-.02v.33m-3.1-1.23v-4.7c0-1.1-.97-2.06-2.08-2.06-1.55 0-2.56 1.52-2.56 3.83 0 2.52 1.1 4.16 2.83 4.16.63 0 1.14-.23 1.5-.66.2-.2.32-.43.32-.57M5021.98 903.6c0 2.83-1.84 4.92-4.6 4.92-2.48 0-4.42-2.03-4.42-4.87 0-2.85 1.84-4.75 4.6-4.75 2.5 0 4.42 1.86 4.42 4.7m-1.84.54c0-1.4-.37-2.8-1.02-3.64-.5-.62-1.07-1.03-1.95-1.03-1.4 0-2.37 1.2-2.37 3.26 0 1.6.33 3.1 1.08 4.2.45.65 1.1 1.02 1.85 1.02 1.5 0 2.4-1.44 2.4-3.8M5025.9 898.94v1.88c1.02-1.47 1.6-1.92 2.45-1.92.7 0 1.12.4 1.12 1.1 0 .56-.3.9-.8.9-.26 0-.5-.1-.8-.4-.24-.2-.42-.3-.55-.3-.57 0-1.43 1-1.43 1.67v4.6c0 1.17.34 1.48 1.73 1.54v.32h-4.9v-.3c1.3-.26 1.44-.4 1.44-1.42v-5.12c0-.9-.18-1.23-.7-1.23-.24 0-.42.02-.7.08V900c1.2-.38 1.93-.67 3.02-1.1M5044.6 907.46l-3 1.06-.1-.06v-1.3c-.7.95-1.47 1.36-2.6 1.36-2.28 0-3.8-1.78-3.8-4.4 0-2.9 1.9-5.22 4.26-5.22.82 0 1.37.23 2.15.88v-3.2c0-.83-.18-1.04-.93-1.04-.17 0-.3 0-.45.02v-.32c1.3-.35 2.02-.56 3-.9l.1.04v11.6c0 .94.17 1.17.9 1.17l.48-.02v.33m-3.1-1.23v-4.7c0-1.1-.98-2.06-2.08-2.06-1.56 0-2.56 1.52-2.56 3.83 0 2.52 1.1 4.16 2.83 4.16.62 0 1.13-.23 1.5-.66.2-.2.3-.43.3-.57M5053.15 904.96l.33.14c-.8 2.23-2.23 3.42-4.28 3.42-2.4 0-3.9-1.82-3.9-4.65 0-2.88 1.67-4.97 4.25-4.97 1.27 0 2.2.5 2.85 1.4.4.6.6 1.24.7 2.35h-6.3c.1 1.55.2 2.35.93 3.33.57.76 1.33 1.13 2.27 1.13 1.37 0 2.15-.63 3.15-2.14m-6.32-2.97h4.17c-.22-1.67-.65-2.36-2-2.36-1.15 0-1.95.82-2.17 2.35M5068.93 908.32h-4.26l.03-.3c1.02-.1 1.27-.5 1.27-1.85v-4.08c0-1.46-.5-2.07-1.5-2.07-.68 0-1.17.24-2.1 1.16v5.64c0 .8.28 1.1 1.32 1.17v.32h-4.32v-.3c1.04-.1 1.26-.42 1.26-1.63v-4.98c0-1-.14-1.33-.7-1.33-.24 0-.46 0-.6.07v-.35c1.12-.33 1.8-.55 2.8-.92l.16.06v1.6h.02c1.07-1.2 2-1.66 2.95-1.66 1.55 0 2.4 1.13 2.4 3.15v4.53c0 1.1.26 1.33 1.26 1.43v.32M5072.94 895.38c0 .6-.45 1.04-1.06 1.04-.57 0-1.02-.45-1.02-1.04 0-.57.47-1.04 1.04-1.04.6 0 1.04.47 1.04 1.04m1.5 12.94h-4.85v-.3c1.4-.1 1.6-.28 1.6-1.83v-4.66c0-.96-.16-1.3-.67-1.3-.2 0-.5 0-.86.1v-.3l3.17-1.14.08.08v7.2c0 1.5.17 1.73 1.52 1.83v.32M5084.7 899.1v.3c-.6.07-.77.24-1.32 1.6l-2.62 6.58c-.3.75-.45 1.02-.57 1.02-.13 0-.24-.16-.38-.53-.06-.1-.08-.25-.16-.43l-2.46-5.87c-.88-2.1-1.08-2.32-1.86-2.36v-.3h4v.3c-.7.07-.93.22-.93.57 0 .2.07.46.2.77l2.08 5.24 2.03-5.3c.1-.2.13-.4.13-.6 0-.4-.3-.6-.96-.67v-.3h2.84M5093.55 904.96l.33.14c-.8 2.23-2.23 3.42-4.28 3.42-2.4 0-3.9-1.82-3.9-4.65.02-2.88 1.67-4.97 4.25-4.97 1.27 0 2.2.5 2.85 1.4.4.6.6 1.24.7 2.35h-6.3c.1 1.55.2 2.35.93 3.33.57.76 1.33 1.13 2.27 1.13 1.37 0 2.15-.63 3.15-2.14m-6.32-2.97h4.17c-.22-1.67-.65-2.36-2-2.36-1.15 0-1.95.82-2.17 2.35M5099.55 908.32h-4.83v-.3c1.3-.1 1.58-.46 1.58-1.6v-9.6c0-.97-.2-1.3-.86-1.3-.17 0-.43 0-.76.04v-.32c1.4-.35 2.17-.56 3.23-.9l.12.08v12.1c0 1.14.22 1.4 1.53 1.5v.3"/><path d="M4756.67 1079.1v-79.6" stroke="#5e5e5e" stroke-width="2" fill="none"/><path d="M4757.67 1080.1h-2v-1.03h2z" stroke="#5e5e5e" stroke-width=".05" fill="#5e5e5e"/><path d="M4756.67 984.24l4.63 14.26h-9.27z" stroke="#5e5e5e" stroke-width="2" fill="#5e5e5e"/><path d="M4739.7 1080.1h30.6v20.8h-30.6z" fill="#fff" fill-opacity="0"/><path d="M4749.3 1093.5l.3.24c-.6.7-1.6 2.17-2.73 2.17-.36 0-.83-.2-.83-.85 0-.25.02-.53 1.3-5.47.05-.14.15-.6.15-.9 0-.38-.15-.7-.5-.7-.74 0-2.1 1.73-2.74 2.7-.7 1.05-1.27 2.1-1.38 2.5l-.65 2.5h-1.6l3.1-12.28c.03-.08.06-.14.06-.2-.02-.27-.22-.45-.65-.45-.2 0-.43.02-.6.04l-.03-.3 3.25-.5-2.23 8.53h.08c1.1-1.2 2.56-3.87 4.42-3.87.86 0 1.17.7 1.17 1.43 0 .44-.1.87-.22 1.3l-1.18 4.7c-.03.1-.05.15-.05.2 0 .13.07.3.27.3.45 0 1-.72 1.3-1.1M4756.43 1098.98l-.24.33c-3.25-1.84-5-5.3-5-8.77 0-3.8 1.77-6.74 5.05-8.68l.18.33c-2.84 2.43-3.48 4.33-3.48 8.28 0 3.8.62 6.12 3.48 8.52M4762.84 1086.72l-.2.78h-1.44l-1.6 6.55c-.02.06-.04.16-.04.22 0 .12.06.25.33.25 0 0 .46-.04 1.22-1.07l.27.23c-.5.63-1.53 2.2-2.74 2.2-.63 0-.8-.52-.8-1.08 0-.26.05-.53.1-.75l1.66-6.55h-1.57l.1-.6c1.54-.28 2.8-1.04 3.62-2.82h.27l-.63 2.64h1.44M4764.05 1082.17l.24-.32c3.12 1.88 4.98 5.3 4.98 8.78 0 3.78-1.8 6.7-5.05 8.68l-.18-.32c2.9-2.4 3.47-4.32 3.47-8.3 0-3.82-.5-6.17-3.47-8.5"/><path d="M4756.67 1101.9v79.6" stroke="#5e5e5e" stroke-width="2" fill="none"/><path d="M4757.67 1101.93h-2v-1.02h2z" stroke="#5e5e5e" stroke-width=".05" fill="#5e5e5e"/><path d="M4756.67 1196.76l-4.64-14.26h9.27z" stroke="#5e5e5e" stroke-width="2" fill="#5e5e5e"/><defs><path fill="#3a414a" d="M137 0h-34L2-248h35l83 218 83-218h36" id="f"/><path fill="#3a414a" d="M141-36C126-15 110 5 73 4 37 3 15-17 15-53c-1-64 63-63 125-63 3-35-9-54-41-54-24 1-41 7-42 31l-33-3c5-37 33-52 76-52 45 0 72 20 72 64v82c-1 20 7 32 28 27v20c-31 9-61-2-59-35zM48-53c0 20 12 33 32 33 41-3 63-29 60-74-43 2-92-5-92 41zm25-158c8-23 27-35 38-54h36v5l-58 49H73" id="g"/><path fill="#3a414a" d="M24 0v-261h32V0H24" id="h"/><path fill="#3a414a" d="M108 0H70L1-190h34L89-25l56-165h34" id="i"/><path fill="#3a414a" d="M84 4C-5 8 30-112 23-190h32v120c0 31 7 50 39 49 72-2 45-101 50-169h31l1 190h-30c-1-10 1-25-2-33-11 22-28 36-60 37" id="j"/><path fill="#3a414a" d="M141-36C126-15 110 5 73 4 37 3 15-17 15-53c-1-64 63-63 125-63 3-35-9-54-41-54-24 1-41 7-42 31l-33-3c5-37 33-52 76-52 45 0 72 20 72 64v82c-1 20 7 32 28 27v20c-31 9-61-2-59-35zM48-53c0 20 12 33 32 33 41-3 63-29 60-74-43 2-92-5-92 41" id="k"/><g id="a"><use transform="matrix(0.06172839506172839,0,0,0.06172839506172839,0,0)" xlink:href="#f"/><use transform="matrix(0.06172839506172839,0,0,0.06172839506172839,14.814814814814813,0)" xlink:href="#g"/><use transform="matrix(0.06172839506172839,0,0,0.06172839506172839,27.160493827160494,0)" xlink:href="#h"/><use transform="matrix(0.06172839506172839,0,0,0.06172839506172839,32.03703703703704,0)" xlink:href="#i"/><use transform="matrix(0.06172839506172839,0,0,0.06172839506172839,43.14814814814815,0)" xlink:href="#j"/><use transform="matrix(0.06172839506172839,0,0,0.06172839506172839,55.49382716049383,0)" xlink:href="#h"/><use transform="matrix(0.06172839506172839,0,0,0.06172839506172839,60.370370370370374,0)" xlink:href="#k"/></g><path fill="#3a414a" d="M85-194c31 0 48 13 60 33l-1-100h32l1 261h-30c-2-10 0-23-3-31C134-8 116 4 85 4 32 4 16-35 15-94c0-66 23-100 70-100zm9 24c-40 0-46 34-46 75 0 40 6 74 45 74 42 0 51-32 51-76 0-42-9-74-50-73" id="l"/><path fill="#3a414a" d="M100-194c63 0 86 42 84 106H49c0 40 14 67 53 68 26 1 43-12 49-29l28 8c-11 28-37 45-77 45C44 4 14-33 15-96c1-61 26-98 85-98zm52 81c6-60-76-77-97-28-3 7-6 17-6 28h103" id="m"/><g id="b"><use transform="matrix(0.06172839506172839,0,0,0.06172839506172839,0,0)" xlink:href="#l"/><use transform="matrix(0.06172839506172839,0,0,0.06172839506172839,12.345679012345679,0)" xlink:href="#m"/></g><path fill="#3a414a" d="M96-169c-40 0-48 33-48 73s9 75 48 75c24 0 41-14 43-38l32 2c-6 37-31 61-74 61-59 0-76-41-82-99-10-93 101-131 147-64 4 7 5 14 7 22l-32 3c-4-21-16-35-41-35" id="n"/><path fill="#3a414a" d="M100-194c62-1 85 37 85 99 1 63-27 99-86 99S16-35 15-95c0-66 28-99 85-99zM99-20c44 1 53-31 53-75 0-43-8-75-51-75s-53 32-53 75 10 74 51 75" id="o"/><path fill="#3a414a" d="M210-169c-67 3-38 105-44 169h-31v-121c0-29-5-50-35-48C34-165 62-65 56 0H25l-1-190h30c1 10-1 24 2 32 10-44 99-50 107 0 11-21 27-35 58-36 85-2 47 119 55 194h-31v-121c0-29-5-49-35-48" id="p"/><path fill="#3a414a" d="M115-194c55 1 70 41 70 98S169 2 115 4C84 4 66-9 55-30l1 105H24l-1-265h31l2 30c10-21 28-34 59-34zm-8 174c40 0 45-34 45-75s-6-73-45-74c-42 0-51 32-51 76 0 43 10 73 51 73" id="q"/><path fill="#3a414a" d="M114-163C36-179 61-72 57 0H25l-1-190h30c1 12-1 29 2 39 6-27 23-49 58-41v29" id="r"/><path fill="#3a414a" d="M59-47c-2 24 18 29 38 22v24C64 9 27 4 27-40v-127H5v-23h24l9-43h21v43h35v23H59v120" id="s"/><g id="c"><use transform="matrix(0.06172839506172839,0,0,0.06172839506172839,0,0)" xlink:href="#n"/><use transform="matrix(0.06172839506172839,0,0,0.06172839506172839,11.11111111111111,0)" xlink:href="#o"/><use transform="matrix(0.06172839506172839,0,0,0.06172839506172839,23.45679012345679,0)" xlink:href="#p"/><use transform="matrix(0.06172839506172839,0,0,0.06172839506172839,41.91358024691358,0)" xlink:href="#q"/><use transform="matrix(0.06172839506172839,0,0,0.06172839506172839,54.25925925925926,0)" xlink:href="#j"/><use transform="matrix(0.06172839506172839,0,0,0.06172839506172839,66.60493827160494,0)" xlink:href="#m"/><use transform="matrix(0.06172839506172839,0,0,0.06172839506172839,78.95061728395062,0)" xlink:href="#r"/><use transform="matrix(0.06172839506172839,0,0,0.06172839506172839,86.2962962962963,0)" xlink:href="#s"/><use transform="matrix(0.06172839506172839,0,0,0.06172839506172839,92.46913580246914,0)" xlink:href="#k"/></g><path d="M185-189c-5-48-123-54-124 2 14 75 158 14 163 119 3 78-121 87-175 55-17-10-28-26-33-46l33-7c5 56 141 63 141-1 0-78-155-14-162-118-5-82 145-84 179-34 5 7 8 16 11 25" id="t"/><use transform="matrix(0.05,0,0,0.05,0,0)" xlink:href="#t" id="d"/><path fill="#3a414a" d="M27 0v-27h64v-190l-56 39v-29l58-41h29v221h61V0H27" id="u"/><path fill="#3a414a" d="M101-251c68 0 85 55 85 127S166 4 100 4C33 4 14-52 14-124c0-73 17-127 87-127zm-1 229c47 0 54-49 54-102s-4-102-53-102c-51 0-55 48-55 102 0 53 5 102 54 102" id="v"/><g id="e"><use transform="matrix(0.06172839506172839,0,0,0.06172839506172839,0,0)" xlink:href="#u"/><use transform="matrix(0.06172839506172839,0,0,0.06172839506172839,10.679012345679013,0)" xlink:href="#u"/><use transform="matrix(0.06172839506172839,0,0,0.06172839506172839,23.02469135802469,0)" xlink:href="#v"/><use transform="matrix(0.06172839506172839,0,0,0.06172839506172839,35.37037037037037,0)" xlink:href="#i"/></g></defs></g></svg>