<svg xmlns="http://www.w3.org/2000/svg" xmlns:xlink="http://www.w3.org/1999/xlink" xmlns:lucid="lucid" width="780" height="261.5"><g transform="translate(-4160 -1728.9025617462319)" lucid:page-tab-id="iWyiPFsZhNO."><path d="M0 0h5484.6v2581.67H0z" fill="#fff"/><path d="M4362 1818.25h119.5" stroke="#5e5e5e" stroke-width="2" fill="none"/><path d="M4362.03 1819.25h-1.1l.07-1-.03-1h1.06z" stroke="#5e5e5e" stroke-width=".05" fill="#5e5e5e"/><path d="M4496.76 1818.25l-14.26 4.63v-9.27z" stroke="#5e5e5e" stroke-width="2" fill="#5e5e5e"/><path d="M4513.57 1736.4a6 6 0 0 1 6-6h261.02a6 6 0 0 1 6 6v167.74a6 6 0 0 1-6 6h-261.03a6 6 0 0 1-6-6z" stroke="#5e5e5e" stroke-width="3" fill="#fff"/><path d="M4520 1780h249.34v73.1H4520z" fill="#fff" fill-opacity="0"/><path d="M4551.86 1804.45l-.16.63c-2.02 0-3.1.8-4.76 2.1l-10.77 8.4 7.43 11.04c1.15 1.7 2.46 3.13 5.05 3.13l-.16.64h-11.42l.16-.65h.44c1.1 0 1.87-.2 1.87-1.3 0-.64-.32-.88-.64-1.4l-6.2-9.4h-.14l-2.47 9.64c-.1.3-.13.6-.13.86 0 .96.76 1.6 3.1 1.6h.68l-.16.63h-12.1l.17-.65h.7c2.4 0 3.07-1.4 3.35-2.46l4.65-18.76c.28-1.08.4-1.12.4-1.95 0-.88-.64-1.52-3.02-1.52h-.72l.16-.63h12.4l-.17.63h-.44c-3 0-3.5 1.07-3.86 2.46l-2.1 8.3h.2l11.2-8.77c.4-.32.7-.64.7-1.15-.03-.56-.35-.84-2.02-.84l.16-.63h8.58M4557.4 1825.98l.38-.37c1.1-1.02 2.2-1.62 3.17-1.62 1.72 0 2.64 1.52 2.64 4.36 0 3.62-3.1 8.37-7.14 8.37-.68 0-1.18-.1-1.7-.53l-.7 2.8c-.07.38-.13.7-.13 1 0 .62.3 1.2 1.72 1.2h.44l-.1.34h-6.56l.08-.33c1.74-.08 1.94-.92 2.28-2.2l3.28-13.05c0-.53-.02-.92-.87-.92-.2 0-.55.05-.77.1l-.06-.44 4.44-.68-.5 1.94m-1 3.77l-1.3 5.6c.4.45.95.6 1.3.6 2.83 0 4.93-4.87 4.93-8 0-1.78-.78-2.34-1.43-2.34-1.5 0-2.95 1.7-3.5 4.13M4572.76 1821.65h191.77v-2.38h-191.77zM4583.68 1812.9l-.33.45c-4.44-2.53-6.86-7.27-6.86-12.05 0-5.2 2.44-9.24 6.93-11.9l.25.44c-3.9 3.34-4.77 5.96-4.77 11.38 0 5.22.85 8.4 4.78 11.68M4595.56 1808.38h-7.75v-.42c2.1-.12 2.68-.7 2.68-2.25v-12.6c0-.96-.25-1.38-.84-1.38-.28 0-.76.14-1.27.34l-.75.28v-.4l5.02-2.55.26.07v16.77c0 1.2.56 1.72 2.66 1.72v.42M4616.4 1802.2h-7.32v7.33h-1.86v-7.33h-7.33v-1.86h7.32v-7.33h1.86v7.35h7.33v1.85M4636.63 1790.04l-1.3 5.03h-.44c.05-.48.13-1.24.13-2 0-1.85-1.63-2-2.78-2h-2.75l-3.74 15.12c-.05.24-.14.44-.14.7 0 .58.45 1.03 2.14 1.03h.6l-.13.45H4619l.1-.45h.5c2.2 0 2.76-.8 3-1.74l3.72-15.12h-2.55c-2.33 0-4.3 1.7-4.8 4h-.45l1.3-5.04h16.8M4638.46 1801.2c0 .53-.44.93-.97.93-.6 0-.97-.4-.97-.92 0-.5.38-1 .96-1 .52 0 .96.5.96 1m-.6 2.53l-1.86 7.33c-.02.12-.02.2-.02.28 0 .14.12.2.27.2.44 0 .56-.24 1.28-1.03l.27.2c-.7.92-1.72 2.13-2.7 2.13-.57 0-.8-.38-.8-.93 0-.24 0-.62 1.58-6.8.02-.04.04-.2.04-.25 0-.34-.16-.44-.62-.44-.18 0-.43.05-.57.1l-.06-.33M4653.32 1796l-.68 4.1h-.42c0-1.8-1-3.38-2.58-3.38-.7 0-1.44.48-1.44 1.63 0 1.55 3.77 4.13 3.77 6.8 0 1.74-1.35 3.5-3.8 3.5-.95 0-2.75-.55-3.08-.55-.27 0-.52.1-.86.6h-.47l.7-4.4h.45c0 1.78 1.15 3.66 2.92 3.66 1.66 0 2.05-1.4 2.05-2.5 0-2.3-3.66-3.7-3.66-6.46 0-2.22 1.66-3 3.2-3 1.2 0 1.77.55 2.58.55.3 0 .62-.28.85-.56h.45M4672.59 1802.2h-7.35v7.33h-1.85v-7.33h-7.33v-1.86h7.33v-7.33h1.85v7.35h7.34l-.02 1.85M4692.8 1790.04l-1.28 5.03h-.45c.06-.48.14-1.24.14-2 0-1.85-1.62-2-2.77-2h-2.75l-3.74 15.12c-.05.24-.14.44-.14.7 0 .58.45 1.03 2.14 1.03h.6l-.13.45h-9.23l.1-.45h.52c2.18 0 2.74-.8 2.97-1.74l3.73-15.12h-2.55c-2.34 0-4.3 1.7-4.8 4h-.46l1.3-5.04h16.8M4694.64 1801.2c0 .53-.45.93-.97.93-.58 0-.97-.4-.97-.92 0-.5.4-1 .97-1 .52 0 .97.5.97 1m-.6 2.53l-1.86 7.33c-.02.12-.02.2-.02.28 0 .14.12.2.26.2.45 0 .57-.24 1.3-1.03l.25.2c-.7.92-1.7 2.13-2.7 2.13-.56 0-.8-.38-.8-.93 0-.24 0-.62 1.6-6.8l.03-.25c0-.34-.16-.44-.62-.44-.2 0-.43.05-.57.1l-.05-.33M4717.36 1790.04l-1.3 5.03h-.44c.06-.48.14-1.24.14-2 0-1.85-1.63-2-2.78-2h-2.75l-3.74 15.12c-.06.24-.15.44-.15.7 0 .58.45 1.03 2.14 1.03h.58l-.1.45h-9.26l.12-.45h.5c2.2 0 2.76-.8 2.98-1.74l3.74-15.12h-2.56c-2.33 0-4.3 1.7-4.8 4h-.45l1.3-5.04h16.8M4724.63 1799.15l-3 12.05-.04.24c0 .12.1.18.3.18.4 0 .96-.7 1.24-1.13l.22.24c-.6.9-1.67 2.1-2.62 2.1-.64 0-.8-.45-.8-.8 0-.42.04-.7.2-1.3h-.1c-1.5 1.87-2.7 2.1-3.45 2.1-1.48 0-1.78-1.48-1.78-2.55 0-2.08 2.08-6.57 5.18-6.57 1.15 0 1.6.52 1.63 1h.04l1.07-4.2c.02-.1.04-.17.04-.25 0-.26-.14-.4-.67-.4-.17 0-.4.04-.53.06l-.08-.3m-.17 6.12c0-.95-.3-1.43-1.13-1.43-2 0-3.63 4.03-3.63 5.96 0 .98.57 1.32 1.13 1.32 1.4 0 2.74-1.9 3.3-3.74.23-.7.33-1.5.33-2.12M4738.46 1796l-.67 4.1h-.43c0-1.8-1.02-3.38-2.6-3.38-.7 0-1.42.48-1.42 1.63 0 1.55 3.76 4.13 3.76 6.8 0 1.74-1.33 3.5-3.78 3.5-.95 0-2.75-.55-3.1-.55-.24 0-.5.1-.83.6h-.5l.7-4.4h.46c0 1.78 1.15 3.66 2.92 3.66 1.66 0 2.06-1.4 2.06-2.5 0-2.3-3.66-3.7-3.66-6.46 0-2.22 1.66-3 3.2-3 1.2 0 1.77.55 2.6.55.3 0 .6-.28.83-.56h.46M4749.42 1795.43l-1.1 2.76h-7.86v-.26l3.6-3.8c1.88-2 2.6-3.53 2.6-5.24 0-1.83-1.08-2.84-2.8-2.84-1.45 0-2.15.64-2.96 2.62l-.42-.1c.42-2.36 1.7-4 4.2-4 2.26 0 3.72 1.54 3.72 3.54 0 1.6-.8 3.1-2.58 5l-3.33 3.54h4.7c.85 0 1.28-.23 1.94-1.35M4753.56 1789.84l.34-.45c4.3 2.57 6.86 7.27 6.86 12.04 0 5.2-2.48 9.2-6.94 11.9l-.26-.44c4-3.3 4.78-5.93 4.78-11.38 0-5.25-.7-8.48-4.78-11.68M4669 1827.62l-1.28 5.03h-.45c.06-.48.14-1.24.14-2 0-1.85-1.62-2-2.77-2h-2.75l-3.74 15.12c-.05.26-.14.45-.14.7 0 .6.45 1.04 2.14 1.04h.6l-.13.46h-9.23l.12-.45h.5c2.18 0 2.74-.77 2.97-1.73l3.73-15.1h-2.55c-2.33 0-4.3 1.7-4.8 3.98h-.45l1.3-5.03h16.8M4670.84 1838.8c0 .52-.44.92-.97.92-.58 0-.96-.4-.96-.93 0-.5.4-1 .97-1 .53 0 .97.5.97 1m-.6 2.5l-1.86 7.34c-.02.12-.02.2-.02.28 0 .14.12.2.26.2.45 0 .57-.24 1.3-1.02l.26.2c-.7.9-1.72 2.12-2.7 2.12-.57 0-.8-.4-.8-.93 0-.25 0-.64 1.58-6.82.02-.04.04-.18.04-.24 0-.34-.16-.45-.62-.45-.18 0-.43.04-.57.08l-.05-.33M4685.67 1833.58l-.67 4.1h-.43c0-1.8-1-3.37-2.58-3.37-.7 0-1.44.48-1.44 1.63 0 1.55 3.76 4.13 3.76 6.8 0 1.74-1.35 3.5-3.8 3.5-.95 0-2.74-.55-3.08-.55-.25 0-.5.1-.84.6h-.48l.7-4.4h.45c0 1.78 1.15 3.66 2.92 3.66 1.65 0 2.04-1.4 2.04-2.5 0-2.3-3.65-3.7-3.65-6.46 0-2.22 1.65-3 3.2-3 1.2 0 1.76.56 2.58.56.3 0 .62-.28.84-.56h.45"/><path d="M4789.1 1820.27h132.4" stroke="#5e5e5e" stroke-width="2" fill="none"/><path d="M4789.1 1821.27h-1v-2h1z" stroke="#5e5e5e" stroke-width=".05" fill="#5e5e5e"/><path d="M4936.76 1820.27l-14.26 4.64v-9.26z" stroke="#5e5e5e" stroke-width="2" fill="#5e5e5e"/><path d="M4161 1818.25h99.5M4161.03 1818.25H4160" stroke="#5e5e5e" stroke-width="2" fill="none"/><path d="M4275.76 1818.25l-14.26 4.63v-9.27z" stroke="#5e5e5e" stroke-width="2" fill="#5e5e5e"/><path d="M4906.98 1990.4H4326a6 6 0 0 1-6-6v-106.65M4906.95 1990.4h1.03" stroke="#5e5e5e" stroke-width="2" fill="none"/><path d="M4320 1862.48l4.64 14.27h-9.28z" stroke="#5e5e5e" stroke-width="2" fill="#5e5e5e"/><path d="M4360 1818.25c0 22.1-17.9 40-40 40s-40-17.9-40-40 17.9-40 40-40 40 17.9 40 40zm-68.3-28.3l56.6 56.58m-56.6 0l56.6-56.57" stroke="#5e5e5e" stroke-width="2" fill="#fff"/><path d="M4280 1805.83h24.63v26.1H4280z" fill="none"/><use xlink:href="#a" transform="matrix(1,0,0,1,4280,1805.8253275271893) translate(6.018518518518519 17.944444444444443)"/><path d="M4309.8 1832.24h20.4v26.9h-20.4z" fill="none"/><use xlink:href="#b" transform="matrix(1,0,0,1,4309.8022729169525,1832.2416594363572) translate(6.827160493827161 17.944444444444443)"/><path d="M4417.38 1790.4h53.48v29.53h-53.48z" fill="#fff" fill-opacity="0"/><path d="M4438.7 1793.56l-1.23 4.6h-.46c.04-.4.07-.7.07-1.03-.1-2.15-1.7-2.52-3.17-2.52h-4.64l-1.74 7.2h2.32c1.74 0 3.02-.37 3.66-2.75h.46l-1.68 7.03h-.5c.03-.38.18-1.25.18-1.75 0-1.36-1.2-1.48-2.1-1.48h-2.6l-1.92 7.5c-.03.1-.06.2-.06.28 0 .47.46.8 1.83.8h1.95c4.6 0 6.22-1.38 7.47-4.66h.46l-1.92 5.75h-16.57l.1-.46h.55c2.12 0 2.8-.82 3.02-1.8l3.5-14.17c.1-.53.13-.85.13-1.06 0-.7-.46-1-2.18-1h-.55l.12-.48h15.5M4447.52 1817.2l-.35.46c-4.6-2.6-7.08-7.52-7.08-12.46 0-5.37 2.5-9.55 7.16-12.3l.26.46c-4.04 3.45-4.94 6.15-4.94 11.76 0 5.4.88 8.68 4.94 12.08M4459.72 1799.72l-.7 4.24h-.44c0-1.86-1.04-3.5-2.67-3.5-.7 0-1.47.5-1.47 1.7 0 1.6 3.9 4.26 3.9 7.02 0 1.8-1.4 3.63-3.93 3.63-1 0-2.84-.57-3.2-.57-.25 0-.5.12-.86.6h-.5l.73-4.52h.46c0 1.84 1.2 3.8 3.02 3.8 1.72 0 2.12-1.47 2.12-2.6 0-2.38-3.77-3.83-3.77-6.68 0-2.3 1.7-3.1 3.3-3.1 1.26 0 1.84.58 2.68.58.32 0 .64-.3.87-.58h.47M4462 1793.36l.36-.47c4.44 2.66 7.08 7.5 7.08 12.45 0 5.37-2.55 9.5-7.17 12.3l-.26-.45c4.13-3.4 4.94-6.13 4.94-11.76 0-5.43-.72-8.77-4.93-12.08"/><path d="M4847.98 1787.33h54.67v29.53h-54.67z" fill="#fff" fill-opacity="0"/><path d="M4870.48 1790.48l-.1.47h-.48c-2.18 0-2.84.78-3.1 1.83l-2.53 10.33c-.76 3.1-2.38 6.72-7.9 6.72-4.64 0-6.44-2.8-6.44-5.43 0-.24.34-2.5.4-2.77l2.2-9.58c.04-.06.04-.14.04-.2 0-.58-.6-.9-2.18-.9h-.53l.1-.47h9.54l-.1.47h-.5c-2.3 0-2.82.78-3.08 1.83l-2.6 10.45c-.13.43-.22 1.48-.22 1.97 0 1.57 1.37 3.26 4.18 3.26 3.23 0 4.9-2.36 5.67-5.5l2.5-10.18c.05-.2.1-.44.1-.76-.02-.66-.48-1.07-2.17-1.07h-.55l.12-.47h7.63M4879.3 1814.12l-.34.46c-4.6-2.6-7.08-7.52-7.08-12.45 0-5.38 2.52-9.56 7.17-12.3l.26.45c-4.03 3.45-4.93 6.16-4.93 11.76 0 5.4.87 8.68 4.94 12.08M4891.5 1796.64l-.7 4.24h-.43c0-1.86-1.04-3.5-2.67-3.5-.73 0-1.48.5-1.48 1.7 0 1.6 3.9 4.27 3.9 7.02 0 1.8-1.4 3.63-3.93 3.63-1 0-2.85-.58-3.2-.58-.27 0-.53.12-.88.6h-.5l.74-4.52h.46c0 1.83 1.2 3.78 3.02 3.78 1.72 0 2.12-1.44 2.12-2.58 0-2.38-3.77-3.83-3.77-6.67 0-2.3 1.7-3.1 3.3-3.1 1.24 0 1.83.57 2.67.57.32 0 .64-.3.87-.58h.46M4893.8 1790.28l.35-.46c4.44 2.67 7.08 7.52 7.08 12.45 0 5.37-2.55 9.5-7.17 12.3l-.26-.45c4.12-3.4 4.93-6.13 4.93-11.76 0-5.43-.72-8.77-4.93-12.08"/><defs><path fill="#3a414a" d="M118-107v75H92v-75H18v-26h74v-75h26v75h74v26h-74" id="c"/><use transform="matrix(0.06172839506172839,0,0,0.06172839506172839,0,0)" xlink:href="#c" id="a"/><path fill="#3a414a" d="M16-82v-28h88v28H16" id="d"/><use transform="matrix(0.06172839506172839,0,0,0.06172839506172839,0,0)" xlink:href="#d" id="b"/></defs></g></svg>