<svg xmlns="http://www.w3.org/2000/svg" xmlns:xlink="http://www.w3.org/1999/xlink" xmlns:lucid="lucid" width="780" height="261.5"><g transform="translate(-2272.0194615588807 -198.49999997742106)" lucid:page-tab-id="iWyiPFsZhNO."><path d="M0 0h3677.73v2581.67H0z" fill="#fff"/><path d="M2474.02 287.84h119.5" stroke="#5e5e5e" stroke-width="2" fill="none"/><path d="M2474.05 288.84h-1.1l.07-.98-.03-1.02h1.05z" stroke="#5e5e5e" stroke-width=".05" fill="#5e5e5e"/><path d="M2608.78 287.84l-14.26 4.64v-9.27z" stroke="#5e5e5e" stroke-width="2" fill="#5e5e5e"/><path d="M2625.6 206a6 6 0 0 1 6-6h261a6 6 0 0 1 6 6v167.74a6 6 0 0 1-6 6h-261a6 6 0 0 1-6-6z" stroke="#5e5e5e" stroke-width="3" fill="#fff"/><path d="M2763.7 240.37a.5.5 0 0 1 .5.5v98a.5.5 0 0 1-.5.5.5.5 0 0 1-.5-.5v-98a.5.5 0 0 1 .5-.5zM2764.2 340.87a.5.5 0 0 1-.5.5h-100.6a.5.5 0 0 1-.5-.5.5.5 0 0 1 .5-.5h100.6a.5.5 0 0 1 .5.5zM2861.6 238.87a.5.5 0 0 1-.5.5h-98a.5.5 0 0 1-.5-.5.5.5 0 0 1 .5-.5h98a.5.5 0 0 1 .5.5z" stroke="#5e5e5e" fill="none"/><path d="M2812.02 207.84h33.66v29.53h-33.66z" fill="#fff" fill-opacity="0"/><path d="M2834.52 211l-.1.47h-.48c-2.18 0-2.85.78-3.1 1.83l-2.53 10.33c-.75 3.08-2.37 6.7-7.9 6.7-4.64 0-6.43-2.78-6.43-5.42 0-.22.34-2.5.4-2.75l2.2-9.58c.04-.06.04-.14.04-.2 0-.58-.6-.9-2.17-.9h-.52l.12-.47h9.53l-.12.47h-.5c-2.3 0-2.8.78-3.07 1.83l-2.6 10.45c-.13.43-.22 1.48-.22 1.97 0 1.57 1.37 3.25 4.18 3.25 3.23 0 4.9-2.35 5.67-5.48l2.48-10.2c.06-.2.12-.44.12-.76-.03-.67-.5-1.07-2.18-1.07h-.55l.12-.47h7.62M2840.57 234.34h-5.66v-.3c1.53-.1 1.96-.53 1.96-1.66v-9.2c0-.7-.2-1.02-.62-1.02-.2 0-.55.1-.92.25l-.56.2v-.27l3.68-1.87.18.06v12.25c0 .9.4 1.26 1.95 1.26v.3"/><path d="M2657.2 307.84h33.67v29.54h-33.66z" fill="#fff" fill-opacity="0"/><path d="M2679.7 311l-.1.47h-.47c-2.18 0-2.85.78-3.1 1.83l-2.53 10.33c-.76 3.08-2.4 6.7-7.9 6.7-4.65 0-6.45-2.78-6.45-5.42 0-.22.35-2.5.4-2.75l2.22-9.58c.03-.06.03-.14.03-.2 0-.58-.62-.9-2.18-.9h-.53l.1-.47h9.53l-.1.47h-.5c-2.3 0-2.82.78-3.08 1.83l-2.62 10.45c-.1.43-.2 1.48-.2 1.97 0 1.57 1.36 3.25 4.18 3.25 3.23 0 4.92-2.35 5.67-5.48l2.5-10.2c.06-.2.12-.44.12-.76-.04-.67-.5-1.07-2.2-1.07h-.54l.1-.47h7.65M2687.4 331.52l-1.1 2.8h-8.03v-.23l3.65-3.9c1.93-2.02 2.67-3.58 2.67-5.33 0-1.87-1.12-2.9-2.86-2.9-1.48 0-2.2.66-3.02 2.68l-.43-.1c.42-2.4 1.73-4.1 4.26-4.1 2.32 0 3.8 1.6 3.8 3.62 0 1.62-.8 3.16-2.63 5.1l-3.4 3.6h4.82c.86 0 1.3-.22 1.97-1.37"/><path d="M2901.1 289.87h132.42" stroke="#5e5e5e" stroke-width="2" fill="none"/><path d="M2901.13 290.87h-1.02v-2h1.03z" stroke="#5e5e5e" stroke-width=".05" fill="#5e5e5e"/><path d="M3048.78 289.87l-14.26 4.63v-9.26z" stroke="#5e5e5e" stroke-width="2" fill="#5e5e5e"/><path d="M2273.02 287.84h99.5M2273.05 287.84H2272" stroke="#5e5e5e" stroke-width="2" fill="none"/><path d="M2387.78 287.84l-14.26 4.64v-9.27z" stroke="#5e5e5e" stroke-width="2" fill="#5e5e5e"/><path d="M3019 460h-580.98a6 6 0 0 1-6-6V347.35M3018.97 460h1.03" stroke="#5e5e5e" stroke-width="2" fill="none"/><path d="M2432.02 332.08l4.64 14.27h-9.28z" stroke="#5e5e5e" stroke-width="2" fill="#5e5e5e"/><path d="M2472.02 287.84c0 22.1-17.9 40-40 40s-40-17.9-40-40 17.9-40 40-40 40 17.9 40 40zm-68.3-28.28l56.6 56.57m-56.6 0l56.6-56.57" stroke="#5e5e5e" stroke-width="2" fill="#fff"/><path d="M2392.02 275.42h24.63v26.1h-24.63z" fill="none"/><use xlink:href="#a" transform="matrix(1,0,0,1,2392.0194615588807,275.42276575837855) translate(6.018518518518519 17.944444444444443)"/><path d="M2421.82 301.84h20.4v26.9h-20.4z" fill="none"/><use xlink:href="#b" transform="matrix(1,0,0,1,2421.821734475833,301.83909766754664) translate(6.827160493827161 17.944444444444443)"/><path d="M2529.4 260h12.94v18.5h-12.94z" fill="#fff" fill-opacity="0"/><path d="M2539.94 271.5l.4.4c-2.03 2.5-4 3.18-5.8 3.18-2.84 0-3.98-2.44-3.98-4.53 0-.66.03-1.07.18-1.74.72-3.2 3.92-6.84 7.6-6.84 1.22 0 2.97.4 2.97 2.2 0 3.7-4.84 5.12-8.3 5.3v.8c0 1.86 1.5 3.1 3.28 3.1 1.22 0 2.62-.5 3.66-1.85m-6.94-2.86h.26c3.02 0 5.75-2 5.75-4.56 0-.73-.54-1.25-1.26-1.25-2.15 0-3.9 3.34-4.74 5.8"/><path d="M2960 256.92h13.78v18.5H2960z" fill="#fff" fill-opacity="0"/><path d="M2972.9 259.26l-2.6 10.1c-.02.12-.02.18-.02.26 0 .24.1.4.4.4.6 0 1.17-.74 1.66-1.32l.14-.18.38.32c-.67.96-2.15 3.1-3.83 3.1-.84 0-1.16-.54-1.16-1.5 0-.26.03-.73.1-1.08l.77-2.75h-.03c-.2.15-2.8 3.66-3.97 4.53-.66.5-1.42.82-2.1.82-1.35 0-1.76-1.05-1.76-2.15 0-.6.1-1.16.23-1.7l1.72-6.72c.1-.44.17-.6.17-.73 0-.34-.33-.66-.97-.66-.2 0-.55 0-.75.07l-.1-.43 4.57-.76-2.44 9.47c-.05.26-.08.46-.08.7 0 .6.24.98.76.98.72 0 1.88-.9 2.9-2.23 1.25-1.66 2.6-4.24 3.17-6.36l.6-2.18h2.24"/><defs><path fill="#3a414a" d="M118-107v75H92v-75H18v-26h74v-75h26v75h74v26h-74" id="c"/><use transform="matrix(0.06172839506172839,0,0,0.06172839506172839,0,0)" xlink:href="#c" id="a"/><path fill="#3a414a" d="M16-82v-28h88v28H16" id="d"/><use transform="matrix(0.06172839506172839,0,0,0.06172839506172839,0,0)" xlink:href="#d" id="b"/></defs></g></svg>