<svg xmlns="http://www.w3.org/2000/svg" xmlns:xlink="http://www.w3.org/1999/xlink" xmlns:lucid="lucid" width="800" height="445.78"><g transform="translate(-4480 -272.6092356305693)" lucid:page-tab-id="iWyiPFsZhNO."><path d="M0 0h5484.6v2581.67H0z" fill="#fff"/><path d="M4601 700h380.5M4601.03 700H4600" stroke="#5e5e5e" stroke-width="2" fill="none"/><path d="M4996.76 700l-14.26 4.63v-9.26z" stroke="#5e5e5e" stroke-width="2" fill="#5e5e5e"/><path d="M4600 699V318.5M4600 698.97V700" stroke="#5e5e5e" stroke-width="2" fill="none"/><path d="M4600 303.24l4.64 14.26h-9.28z" stroke="#5e5e5e" stroke-width="2" fill="#5e5e5e"/><path d="M4600.13 699l9.04-69.93 7.06-40.8 6.08-27.98 5.5-21 5.1-16.62 4.84-13.68 4.64-11.57 4.52-10.02 4.44-8.83 4.4-7.9 4.4-7.17 4.4-6.58 4.5-6.1 4.57-5.7 4.7-5.4 4.9-5.14 5.08-4.93 5.36-4.77 5.7-4.67 3.06-2.33 33.67-27.9 4.94-5.22.5-.7.1-.16.02-.07V383.74H4741.52l-.02.02-.03.02-.06.03-.06.07-.1.08-.1.12-.1.14-.12.2-.1.2-.1.2-.07.25-.06.27-.06.3V386.3l.05.4.08.44.15.5.23.6.34.68.5.83.75 1 1.12 1.3 1.75 1.68 2.83 2.3 4.9 3.3 9.17 5.1 19.52 8.75 17.13 6.47" stroke="#5e5e5e" stroke-width="2" stroke-linejoin="round" fill="none"/><path d="M4600.13 698.98l-.13 1M4799.04 419.64l.96.36M4800.7 419.3l38.6-38.6M4800.73 419.27l-.73.73M4839.27 380.73l.73-.73M4840.7 380.7l38.6 38.6M4840.73 380.73l-.73-.73M4879.27 419.27l.73.73M4880.7 419.3l38.6-38.6M4880.73 419.27l-.73.73M4919.27 380.73l.73-.73M4918.93 382.5l37.25 37.24M4918.95 382.5l-.73-.72M4956.16 419.72l.73.72M4957.62 419.76l28.9-27.1M4957.64 419.74l-.75.7" stroke="#5e5e5e" stroke-width="2" fill="none"/><path d="M4997.64 382.2l-7.23 13.16-6.34-6.77z" stroke="#5e5e5e" stroke-width="2" fill="#5e5e5e"/><path d="M4480 312.2h100v20.82h-100z" fill="#fff" fill-opacity="0"/><path d="M4494.47 327.8h-5.22v-.4c.74 0 .88-.04 1.13-.18.16-.08.28-.3.28-.5 0-.3-.14-.85-.4-1.43l-.82-1.93h-5.37l-.94 2.33c-.1.27-.18.62-.18.86 0 .64.45.84 1.43.84v.4h-4.07v-.4c1.2-.12 1.38-.55 2.6-3.4l4.2-10h.4l5.05 11.52c.57 1.33.85 1.76 1.92 1.88v.4m-5.32-5.27l-2.38-5.63-2.35 5.63h4.73M4500.04 327.8h-4.83v-.3c1.3-.12 1.58-.46 1.58-1.6v-9.6c0-.97-.2-1.3-.86-1.3-.16 0-.43 0-.76.04v-.33c1.42-.33 2.18-.54 3.24-.9l.1.1V326c0 1.14.23 1.4 1.54 1.5v.3M4505.93 326.22l.27.22c-.68 1.07-1.46 1.56-2.48 1.56-1.2 0-1.8-.88-1.8-2.6v-6.16h-1.1c-.05-.04-.07-.08-.07-.15 0-.13.13-.25.35-.4.53-.3 1.2-1.06 2-2.2.1-.17.27-.35.4-.56.1 0 .14.06.14.27v2.38h2.07v.66h-2.06v5.85c0 1.3.3 1.83 1.06 1.83.45 0 .78-.18 1.23-.7M4516 326.77v.3c-1.04.27-1.78.5-2.8.9l-.1-.06v-1.66h-.05c-1 1.37-2.17 1.76-2.92 1.76-1.58 0-2.5-1.05-2.5-2.62v-5.14c0-1.02-.3-1.3-1.27-1.37v-.3h3v6.62c0 .94.64 1.6 1.44 1.6.6 0 1.2-.17 1.72-.63.33-.28.47-.47.47-1.18v-4.74c0-1.08-.3-1.25-1.52-1.33v-.35h3.23v7.02c0 .94.24 1.17 1.18 1.17h.12M4519.7 318.42v1.88c1.03-1.47 1.6-1.92 2.46-1.92.7 0 1.13.4 1.13 1.08 0 .58-.32.92-.8.92-.28 0-.5-.1-.83-.4-.23-.2-.4-.3-.53-.3-.58 0-1.44 1-1.44 1.67v4.6c0 1.17.35 1.47 1.74 1.54v.3h-4.9v-.3c1.3-.26 1.44-.4 1.44-1.43v-5.1c0-.9-.18-1.24-.7-1.24-.24 0-.42.02-.7.08v-.32c1.2-.4 1.94-.67 3.02-1.1M4532.3 326.44v.57c-.62.8-1.15 1-1.85 1-.76 0-1.2-.4-1.3-1.5h-.03c-1.1 1.23-2.1 1.5-2.97 1.5-1.27 0-2.15-.78-2.15-2.13 0-1.07.64-1.86 1.44-2.4.6-.4 1.37-.8 3.68-1.65v-1.1c0-1.28-.68-1.85-1.6-1.85-.82 0-1.43.45-1.43 1 0 .37.1.43.1.86 0 .4-.4.84-.93.84-.43 0-.88-.4-.88-.94 0-.53.32-1.2 1.04-1.64.57-.38 1.43-.62 2.35-.62 1.14 0 1.9.32 2.4.92.5.6.58 1.02.58 2.27v3.9c0 .95.26 1.36.63 1.36.34 0 .54-.1.9-.4m-3.18-1.24v-2.9c-1.27.46-2.1.9-2.62 1.36-.5.45-.7.94-.7 1.57 0 1.1.62 1.58 1.42 1.58.4 0 .84-.1 1.18-.32.6-.4.72-.7.72-1.3M4541.95 319.54c0 .62-.5 1.13-1.12 1.13-.62 0-1.15-.5-1.15-1.13 0-.65.5-1.14 1.15-1.14.6 0 1.12.53 1.12 1.14m0 7.35c0 .6-.5 1.12-1.12 1.12-.62 0-1.15-.5-1.15-1.13 0-.66.5-1.15 1.15-1.15.6 0 1.12.53 1.12 1.14M4559.02 325.62l.3.23c-.6.7-1.6 2.17-2.73 2.17-.38 0-.86-.2-.86-.86 0-.25.03-.53 1.32-5.47.04-.15.14-.6.14-.9 0-.4-.14-.72-.5-.72-.73 0-2.08 1.74-2.73 2.72-.7 1.04-1.27 2.1-1.38 2.5l-.66 2.5h-1.6l3.1-12.3c.03-.07.05-.13.05-.2 0-.26-.2-.44-.64-.44-.2 0-.43.02-.6.04l-.03-.3 3.25-.48-2.23 8.5h.08c1.1-1.17 2.56-3.85 4.42-3.85.86 0 1.17.7 1.17 1.43 0 .45-.13.88-.23 1.3l-1.2 4.72-.03.2c0 .12.06.3.26.3.45 0 1-.73 1.3-1.1M4566.14 331.1l-.24.3c-3.24-1.83-5-5.3-5-8.76 0-3.8 1.78-6.74 5.06-8.68l.18.33c-2.84 2.42-3.48 4.32-3.48 8.27 0 3.8.62 6.12 3.48 8.52M4572.55 318.83l-.2.78h-1.44l-1.6 6.55-.03.23c0 .12.06.25.33.25 0 0 .47-.05 1.23-1.07l.27.23c-.5.62-1.52 2.18-2.73 2.18-.63 0-.8-.52-.8-1.07 0-.25.05-.52.1-.75l1.66-6.54h-1.57l.1-.6c1.54-.27 2.8-1.03 3.62-2.8h.27l-.63 2.63h1.43M4573.76 314.3l.24-.34c3.13 1.88 5 5.3 5 8.78 0 3.78-1.8 6.7-5.06 8.68l-.18-.33c2.9-2.4 3.47-4.33 3.47-8.3 0-3.83-.5-6.18-3.47-8.5"/><path d="M5000 702.76h6.42v15.63H5000z" fill="#fff" fill-opacity="0"/><path d="M5005.8 706.8l-.2.77h-1.45l-1.6 6.55-.03.23c0 .12.06.24.32.24 0 0 .48-.05 1.23-1.07l.27.22c-.5.64-1.52 2.2-2.72 2.2-.64 0-.8-.52-.8-1.07 0-.27.04-.53.1-.76l1.66-6.55H5001l.1-.6c1.54-.28 2.8-1.04 3.63-2.82h.26l-.64 2.64h1.43"/><path d="M4600.5 380.74a.5.5 0 0 1 .5-.5h428a.5.5 0 0 1 .5.5.5.5 0 0 1-.5.5h-428a.5.5 0 0 1-.5-.5z" fill="none"/><path d="M4620.8 380.24h2m9.9 0h2m9.9 0h19.8m9.9 0h2m9.9 0h2m9.9 0h19.8m9.9 0h2m9.9 0h2m9.9 0h19.8m9.9 0h2m9.9 0h2m9.9 0h19.8m9.9 0h2m9.9 0h2m9.9 0h19.8m9.9 0h2m9.9 0h2m9.9 0h19.8m9.9 0h2m9.9 0h2m9.9 0h19.8m9.9 0h2m9.9 0h2m9.9 0h9.98l.07.02.08.03.06.03.05.06.05.05.05.06.03.08v.08l.02.08v.08l-.02.07-.03.07-.05.06-.05.06-.06.04-.07.05h-.07l-.08.03h-9.98m-9.9 0h-2m-9.9 0h-2m-9.9 0h-19.8m-9.9 0h-2m-9.9 0h-2m-9.9 0h-19.8m-9.9 0h-2m-9.9 0h-2m-9.9 0h-19.8m-9.9 0h-2m-9.9 0h-2m-9.9 0h-19.8m-9.9 0h-2m-9.9 0h-2m-9.9 0h-19.8m-9.9 0h-2m-9.9 0h-2m-9.9 0h-19.8m-9.9 0h-2m-9.9 0h-2m-9.9 0h-19.8m-9.9 0h-2m-9.9 0h-2m-9.9 0h-9.98l-.07-.02h-.08l-.06-.06-.05-.05-.05-.07-.05-.06-.03-.08v-.08l-.02-.08v-.08l.02-.08.03-.07.05-.05.05-.06.06-.06.07-.05.07-.04h.08l.08-.02h9.9" stroke="#5e5e5e" fill="none"/><path d="M4600.5 421a.5.5 0 0 1 .5-.5h428a.5.5 0 0 1 .5.5.5.5 0 0 1-.5.5h-428a.5.5 0 0 1-.5-.5z" fill="none"/><path d="M4620.8 420.5h2m9.9 0h2m9.9 0h19.8m9.9 0h2m9.9 0h2m9.9 0h19.8m9.9 0h2m9.9 0h2m9.9 0h19.8m9.9 0h2m9.9 0h2m9.9 0h19.8m9.9 0h2m9.9 0h2m9.9 0h19.8m9.9 0h2m9.9 0h2m9.9 0h19.8m9.9 0h2m9.9 0h2m9.9 0h19.8m9.9 0h2m9.9 0h2m9.9 0h9.98l.07.02.08.03.06.05.05.05.05.06.05.07.03.08v.07l.02.08v.08l-.02.07-.03.08-.05.06-.05.05-.06.05-.07.05-.07.03h-.08l-.08.02h-9.9m-9.9 0h-2m-9.9 0h-2m-9.9 0h-19.8m-9.9 0h-2m-9.9 0h-2m-9.9 0h-19.8m-9.9 0h-2m-9.9 0h-2m-9.9 0h-19.8m-9.9 0h-2m-9.9 0h-2m-9.9 0h-19.8m-9.9 0h-2m-9.9 0h-2m-9.9 0h-19.8m-9.9 0h-2m-9.9 0h-2m-9.9 0h-19.8m-9.9 0h-2m-9.9 0h-2m-9.9 0h-19.8m-9.9 0h-2m-9.9 0h-2m-9.9 0h-9.98l-.07-.02-.08-.03-.06-.05-.05-.05-.05-.06-.05-.07-.03-.08v-.07l-.02-.08v-.08l.02-.07.03-.08.05-.06.05-.05.06-.05.07-.05.07-.03h.08l.08-.02h9.9" stroke="#5e5e5e" fill="none"/><path d="M5040 385.05a6 6 0 0 1 6-6h228a6 6 0 0 1 6 6v48a6 6 0 0 1-6 6h-228a6 6 0 0 1-6-6z" stroke="#000" stroke-opacity="0" stroke-width="2" fill="#fff" fill-opacity="0"/><use xlink:href="#a" transform="matrix(1,0,0,1,5045,384.0492930086409) translate(26.265432098765444 30.27777777777778)"/><use xlink:href="#b" transform="matrix(1,0,0,1,5045,384.0492930086409) translate(102.74691358024691 30.27777777777778)"/><path d="M5030 311.87v50.33M5030 311.9v-1.03" stroke="#5e5e5e" stroke-width="2" fill="none"/><path d="M5030 377.46l-4.64-14.26h9.28z" stroke="#5e5e5e" stroke-width="2" fill="#5e5e5e"/><path d="M5030 499v-59.5M5030 498.97V500" stroke="#5e5e5e" stroke-width="2" fill="none"/><path d="M5030 424.24l4.64 14.26h-9.27z" stroke="#5e5e5e" stroke-width="2" fill="#5e5e5e"/><defs><path fill="#3a414a" d="M160-131c35 5 61 23 61 61C221 17 115-2 30 0v-248c76 3 177-17 177 60 0 33-19 50-47 57zm-97-11c50-1 110 9 110-42 0-47-63-36-110-37v79zm0 115c55-2 124 14 124-45 0-56-70-42-124-44v89" id="c"/><path fill="#3a414a" d="M114-163C36-179 61-72 57 0H25l-1-190h30c1 12-1 29 2 39 6-27 23-49 58-41v29" id="d"/><path fill="#3a414a" d="M100-194c63 0 86 42 84 106H49c0 40 14 67 53 68 26 1 43-12 49-29l28 8c-11 28-37 45-77 45C44 4 14-33 15-96c1-61 26-98 85-98zm52 81c6-60-76-77-97-28-3 7-6 17-6 28h103" id="e"/><path fill="#3a414a" d="M96-169c-40 0-48 33-48 73s9 75 48 75c24 0 41-14 43-38l32 2c-6 37-31 61-74 61-59 0-76-41-82-99-10-93 101-131 147-64 4 7 5 14 7 22l-32 3c-4-21-16-35-41-35" id="f"/><path fill="#3a414a" d="M106-169C34-169 62-67 57 0H25v-261h32l-1 103c12-21 28-36 61-36 89 0 53 116 60 194h-32v-121c2-32-8-49-39-48" id="g"/><path fill="#3a414a" d="M141-36C126-15 110 5 73 4 37 3 15-17 15-53c-1-64 63-63 125-63 3-35-9-54-41-54-24 1-41 7-42 31l-33-3c5-37 33-52 76-52 45 0 72 20 72 64v82c-1 20 7 32 28 27v20c-31 9-61-2-59-35zM48-53c0 20 12 33 32 33 41-3 63-29 60-74-43 2-92-5-92 41" id="h"/><g id="a"><use transform="matrix(0.06172839506172839,0,0,0.06172839506172839,0,0)" xlink:href="#c"/><use transform="matrix(0.06172839506172839,0,0,0.06172839506172839,14.814814814814813,0)" xlink:href="#d"/><use transform="matrix(0.06172839506172839,0,0,0.06172839506172839,22.160493827160494,0)" xlink:href="#e"/><use transform="matrix(0.06172839506172839,0,0,0.06172839506172839,34.50617283950617,0)" xlink:href="#f"/><use transform="matrix(0.06172839506172839,0,0,0.06172839506172839,45.61728395061728,0)" xlink:href="#g"/><use transform="matrix(0.06172839506172839,0,0,0.06172839506172839,57.962962962962955,0)" xlink:href="#h"/></g><path fill="#3a414a" d="M85-194c31 0 48 13 60 33l-1-100h32l1 261h-30c-2-10 0-23-3-31C134-8 116 4 85 4 32 4 16-35 15-94c0-66 23-100 70-100zm9 24c-40 0-46 34-46 75 0 40 6 74 45 74 42 0 51-32 51-76 0-42-9-74-50-73" id="i"/><path fill="#3a414a" d="M24-231v-30h32v30H24zM24 0v-190h32V0H24" id="j"/><path fill="#3a414a" d="M101-234c-31-9-42 10-38 44h38v23H63V0H32v-167H5v-23h27c-7-52 17-82 69-68v24" id="k"/><path fill="#3a414a" d="M117-194c89-4 53 116 60 194h-32v-121c0-31-8-49-39-48C34-167 62-67 57 0H25l-1-190h30c1 10-1 24 2 32 11-22 29-35 61-36" id="l"/><path fill="#3a414a" d="M24 0v-261h32V0H24" id="m"/><g id="b"><use transform="matrix(0.06172839506172839,0,0,0.06172839506172839,0,0)" xlink:href="#i"/><use transform="matrix(0.06172839506172839,0,0,0.06172839506172839,12.345679012345679,0)" xlink:href="#j"/><use transform="matrix(0.06172839506172839,0,0,0.06172839506172839,17.22222222222222,0)" xlink:href="#k"/><use transform="matrix(0.06172839506172839,0,0,0.06172839506172839,23.39506172839506,0)" xlink:href="#e"/><use transform="matrix(0.06172839506172839,0,0,0.06172839506172839,35.74074074074074,0)" xlink:href="#d"/><use transform="matrix(0.06172839506172839,0,0,0.06172839506172839,43.08641975308642,0)" xlink:href="#e"/><use transform="matrix(0.06172839506172839,0,0,0.06172839506172839,55.432098765432094,0)" xlink:href="#l"/><use transform="matrix(0.06172839506172839,0,0,0.06172839506172839,67.77777777777777,0)" xlink:href="#f"/><use transform="matrix(0.06172839506172839,0,0,0.06172839506172839,78.88888888888889,0)" xlink:href="#j"/><use transform="matrix(0.06172839506172839,0,0,0.06172839506172839,83.76543209876543,0)" xlink:href="#h"/><use transform="matrix(0.06172839506172839,0,0,0.06172839506172839,96.11111111111111,0)" xlink:href="#m"/></g></defs></g></svg>