<svg xmlns="http://www.w3.org/2000/svg" xmlns:xlink="http://www.w3.org/1999/xlink" xmlns:lucid="lucid" width="780" height="332.61"><g transform="translate(-3309.310076828001 -119.99999999999997)" lucid:page-tab-id="iWyiPFsZhNO."><path d="M0 0h5484.6v2581.67H0z" fill="#fff"/><path d="M3511.3 280.45h119.5" stroke="#5e5e5e" stroke-width="2" fill="none"/><path d="M3511.34 281.45h-1.1l.07-.98-.03-1.02h1.07z" stroke="#5e5e5e" stroke-width=".05" fill="#5e5e5e"/><path d="M3646.07 280.45l-14.26 4.64v-9.28z" stroke="#5e5e5e" stroke-width="2" fill="#5e5e5e"/><path d="M3662.88 198.6a6 6 0 0 1 6-6h261.02a6 6 0 0 1 6 6v167.75a6 6 0 0 1-6 6h-261.02a6 6 0 0 1-6-6z" stroke="#5e5e5e" stroke-width="3" fill="#fff"/><path d="M3801 232.98a.5.5 0 0 1 .5.5v98a.5.5 0 0 1-.5.5.5.5 0 0 1-.5-.5v-98a.5.5 0 0 1 .5-.5zM3801.5 333.48a.5.5 0 0 1-.5.5h-100.6a.5.5 0 0 1-.5-.5.5.5 0 0 1 .5-.5H3801a.5.5 0 0 1 .5.5zM3898.9 231.48a.5.5 0 0 1-.5.5h-98a.5.5 0 0 1-.5-.5.5.5 0 0 1 .5-.5h98a.5.5 0 0 1 .5.5z" stroke="#5e5e5e" fill="none"/><path d="M3849.3 200.45h33.67v29.53h-33.66z" fill="#fff" fill-opacity="0"/><path d="M3871.8 203.6l-.1.48h-.47c-2.18 0-2.84.78-3.1 1.83l-2.53 10.34c-.76 3.08-2.38 6.7-7.9 6.7-4.64 0-6.44-2.78-6.44-5.42 0-.23.34-2.5.4-2.76l2.2-9.58c.04-.06.04-.15.04-.2 0-.58-.6-.9-2.18-.9h-.52l.1-.47h9.54l-.12.48h-.5c-2.3 0-2.8.78-3.07 1.83l-2.6 10.46c-.13.43-.22 1.48-.22 1.97 0 1.57 1.37 3.25 4.18 3.25 3.24 0 4.92-2.35 5.68-5.48l2.5-10.2c.05-.2.1-.43.1-.75-.02-.67-.5-1.07-2.17-1.07h-.54l.12-.47h7.63M3877.86 226.94h-5.66v-.3c1.52-.1 1.95-.52 1.95-1.65v-9.22c0-.7-.2-1-.62-1-.2 0-.55.1-.92.24l-.55.2v-.28l3.68-1.87.18.06v12.25c0 .9.42 1.26 1.96 1.26v.3"/><path d="M3694.5 300.45h33.66v29.53h-33.66z" fill="#fff" fill-opacity="0"/><path d="M3717 303.6l-.12.48h-.46c-2.18 0-2.85.78-3.1 1.83l-2.53 10.34c-.77 3.08-2.4 6.7-7.9 6.7-4.66 0-6.46-2.78-6.46-5.42 0-.23.35-2.5.4-2.76l2.22-9.58c.03-.06.03-.14.03-.2 0-.58-.62-.9-2.2-.9h-.5l.1-.47h9.53l-.12.48h-.5c-2.28 0-2.8.78-3.06 1.83l-2.62 10.46c-.1.43-.2 1.48-.2 1.97 0 1.57 1.37 3.25 4.18 3.25 3.23 0 4.9-2.35 5.66-5.48l2.5-10.2c.06-.2.12-.43.12-.75-.03-.67-.5-1.07-2.18-1.07h-.55l.1-.47h7.65M3724.7 324.13l-1.1 2.8h-8.04v-.23l3.65-3.88c1.94-2.03 2.68-3.6 2.68-5.34 0-1.87-1.1-2.9-2.85-2.9-1.48 0-2.2.66-3.02 2.68l-.42-.1c.43-2.4 1.74-4.1 4.27-4.1 2.32 0 3.8 1.6 3.8 3.62 0 1.62-.8 3.16-2.63 5.1l-3.4 3.6h4.82c.86 0 1.3-.22 1.97-1.37"/><path d="M3938.4 282.48h132.4" stroke="#5e5e5e" stroke-width="2" fill="none"/><path d="M3938.43 283.48h-1.03v-2h1.03z" stroke="#5e5e5e" stroke-width=".05" fill="#5e5e5e"/><path d="M4086.07 282.48l-14.26 4.63v-9.26z" stroke="#5e5e5e" stroke-width="2" fill="#5e5e5e"/><path d="M3310.3 280.45h99.5M3310.34 280.45h-1.03" stroke="#5e5e5e" stroke-width="2" fill="none"/><path d="M3425.07 280.45l-14.26 4.64v-9.28z" stroke="#5e5e5e" stroke-width="2" fill="#5e5e5e"/><path d="M4056.3 452.6h-581a6 6 0 0 1-6-6V339.97M4056.26 452.6h1.03" stroke="#5e5e5e" stroke-width="2" fill="none"/><path d="M3469.3 324.7l4.64 14.26h-9.26z" stroke="#5e5e5e" stroke-width="2" fill="#5e5e5e"/><path d="M3509.3 280.45c0 22.1-17.9 40-40 40-22.08 0-40-17.9-40-40s17.92-40 40-40c22.1 0 40 17.9 40 40zm-68.28-28.28l56.58 56.57m-56.58 0l56.58-56.58" stroke="#5e5e5e" stroke-width="2" fill="#fff"/><path d="M3429.3 268.03h24.64v26.1h-24.63z" fill="none"/><use xlink:href="#a" transform="matrix(1,0,0,1,3429.310076828001,268.03200138894783) translate(6.018518518518519 17.944444444444443)"/><path d="M3459.1 294.45h20.4v26.9h-20.4z" fill="none"/><use xlink:href="#b" transform="matrix(1,0,0,1,3459.1123497449535,294.4483332981159) translate(6.827160493827161 17.944444444444443)"/><path d="M3566.7 252.6h12.93v18.5h-12.94z" fill="#fff" fill-opacity="0"/><path d="M3577.23 264.12l.4.38c-2.02 2.5-4 3.2-5.8 3.2-2.84 0-3.98-2.45-3.98-4.54 0-.67.03-1.07.18-1.74.72-3.22 3.92-6.85 7.6-6.85 1.22 0 2.97.4 2.97 2.2 0 3.7-4.85 5.12-8.3 5.3v.8c0 1.86 1.5 3.1 3.27 3.1 1.22 0 2.62-.5 3.66-1.85m-6.94-2.87h.25c3.02 0 5.75-2 5.75-4.56 0-.74-.55-1.26-1.28-1.26-2.14 0-3.88 3.34-4.73 5.8"/><path d="M3997.3 249.53h13.77v18.5h-13.78z" fill="#fff" fill-opacity="0"/><path d="M4010.18 251.87l-2.58 10.1c-.03.12-.03.18-.03.26 0 .24.1.4.4.4.62 0 1.17-.75 1.66-1.32l.14-.17.38.32c-.66.96-2.15 3.1-3.83 3.1-.84 0-1.16-.55-1.16-1.5 0-.26.03-.73.12-1.08l.75-2.76h-.03c-.2.16-2.82 3.67-3.98 4.54-.66.5-1.42.82-2.1.82-1.35 0-1.76-1.05-1.76-2.15 0-.6.1-1.15.23-1.7l1.7-6.7c.12-.45.18-.62.18-.74 0-.35-.32-.67-.96-.67-.2 0-.55.02-.75.08l-.1-.43 4.57-.76-2.44 9.46c-.06.26-.1.46-.1.7 0 .6.25.98.77.98.72 0 1.9-.9 2.9-2.24 1.25-1.65 2.6-4.23 3.17-6.35l.6-2.18h2.24"/><path d="M3841.6 234.98a.5.5 0 0 1 .5.5v98a.5.5 0 0 1-.5.5.5.5 0 0 1-.5-.5v-98a.5.5 0 0 1 .5-.5zM3842.1 335.48a.5.5 0 0 1-.5.5H3731a.5.5 0 0 1-.5-.5.5.5 0 0 1 .5-.5h110.6a.5.5 0 0 1 .5.5zM3939.5 233.48a.5.5 0 0 1-.5.5h-98a.5.5 0 0 1-.5-.5.5.5 0 0 1 .5-.5h98a.5.5 0 0 1 .5.5z" stroke="#5e5e5e" fill="none"/><path d="M3479.5 126a6 6 0 0 1 6-6h228a6 6 0 0 1 6 6v48a6 6 0 0 1-6 6h-228a6 6 0 0 1-6-6z" stroke="#000" stroke-opacity="0" stroke-width="2" fill="#fff" fill-opacity="0"/><use xlink:href="#c" transform="matrix(1,0,0,1,3484.507803911048,124.99999999999997) translate(26.265432098765444 30.27777777777778)"/><use xlink:href="#d" transform="matrix(1,0,0,1,3484.507803911048,124.99999999999997) translate(102.74691358024691 30.27777777777778)"/><path d="M3721 150.07l.66.06.7.1.7.14.68.16.68.2.7.22.68.25.7.3.7.33.72.37.73.43.75.47.78.54.8.6.84.7.87.8.9.88.97 1.03 1.03 1.2 1.1 1.4 1.2 1.63 1.3 1.96 1.43 2.37 1.6 2.94 1.84 3.72 2.18 4.9 2.7 6.85 3.84 11.1 17.75 57.02 2.7 6.86 2.18 4.9 1.84 3.7 1.6 2.94 1.44 2.37 1.3 1.95 1.2 1.64.1.12" stroke="#5e5e5e" stroke-width="3" stroke-linejoin="round" fill="none"/><path d="M3721.08 148.53l-.06 3-1.5-.03v-3z" stroke="#5e5e5e" stroke-width=".05" fill="#5e5e5e"/><path d="M3795.82 284.86l-14.64-3.28 4.72-7.97z" stroke="#5e5e5e" stroke-width="3" fill="#5e5e5e"/><defs><path fill="#3a414a" d="M118-107v75H92v-75H18v-26h74v-75h26v75h74v26h-74" id="e"/><use transform="matrix(0.06172839506172839,0,0,0.06172839506172839,0,0)" xlink:href="#e" id="a"/><path fill="#3a414a" d="M16-82v-28h88v28H16" id="f"/><use transform="matrix(0.06172839506172839,0,0,0.06172839506172839,0,0)" xlink:href="#f" id="b"/><path fill="#3a414a" d="M160-131c35 5 61 23 61 61C221 17 115-2 30 0v-248c76 3 177-17 177 60 0 33-19 50-47 57zm-97-11c50-1 110 9 110-42 0-47-63-36-110-37v79zm0 115c55-2 124 14 124-45 0-56-70-42-124-44v89" id="g"/><path fill="#3a414a" d="M114-163C36-179 61-72 57 0H25l-1-190h30c1 12-1 29 2 39 6-27 23-49 58-41v29" id="h"/><path fill="#3a414a" d="M100-194c63 0 86 42 84 106H49c0 40 14 67 53 68 26 1 43-12 49-29l28 8c-11 28-37 45-77 45C44 4 14-33 15-96c1-61 26-98 85-98zm52 81c6-60-76-77-97-28-3 7-6 17-6 28h103" id="i"/><path fill="#3a414a" d="M96-169c-40 0-48 33-48 73s9 75 48 75c24 0 41-14 43-38l32 2c-6 37-31 61-74 61-59 0-76-41-82-99-10-93 101-131 147-64 4 7 5 14 7 22l-32 3c-4-21-16-35-41-35" id="j"/><path fill="#3a414a" d="M106-169C34-169 62-67 57 0H25v-261h32l-1 103c12-21 28-36 61-36 89 0 53 116 60 194h-32v-121c2-32-8-49-39-48" id="k"/><path fill="#3a414a" d="M141-36C126-15 110 5 73 4 37 3 15-17 15-53c-1-64 63-63 125-63 3-35-9-54-41-54-24 1-41 7-42 31l-33-3c5-37 33-52 76-52 45 0 72 20 72 64v82c-1 20 7 32 28 27v20c-31 9-61-2-59-35zM48-53c0 20 12 33 32 33 41-3 63-29 60-74-43 2-92-5-92 41" id="l"/><g id="c"><use transform="matrix(0.06172839506172839,0,0,0.06172839506172839,0,0)" xlink:href="#g"/><use transform="matrix(0.06172839506172839,0,0,0.06172839506172839,14.814814814814813,0)" xlink:href="#h"/><use transform="matrix(0.06172839506172839,0,0,0.06172839506172839,22.160493827160494,0)" xlink:href="#i"/><use transform="matrix(0.06172839506172839,0,0,0.06172839506172839,34.50617283950617,0)" xlink:href="#j"/><use transform="matrix(0.06172839506172839,0,0,0.06172839506172839,45.61728395061728,0)" xlink:href="#k"/><use transform="matrix(0.06172839506172839,0,0,0.06172839506172839,57.962962962962955,0)" xlink:href="#l"/></g><path fill="#3a414a" d="M85-194c31 0 48 13 60 33l-1-100h32l1 261h-30c-2-10 0-23-3-31C134-8 116 4 85 4 32 4 16-35 15-94c0-66 23-100 70-100zm9 24c-40 0-46 34-46 75 0 40 6 74 45 74 42 0 51-32 51-76 0-42-9-74-50-73" id="m"/><path fill="#3a414a" d="M24-231v-30h32v30H24zM24 0v-190h32V0H24" id="n"/><path fill="#3a414a" d="M101-234c-31-9-42 10-38 44h38v23H63V0H32v-167H5v-23h27c-7-52 17-82 69-68v24" id="o"/><path fill="#3a414a" d="M117-194c89-4 53 116 60 194h-32v-121c0-31-8-49-39-48C34-167 62-67 57 0H25l-1-190h30c1 10-1 24 2 32 11-22 29-35 61-36" id="p"/><path fill="#3a414a" d="M24 0v-261h32V0H24" id="q"/><g id="d"><use transform="matrix(0.06172839506172839,0,0,0.06172839506172839,0,0)" xlink:href="#m"/><use transform="matrix(0.06172839506172839,0,0,0.06172839506172839,12.345679012345679,0)" xlink:href="#n"/><use transform="matrix(0.06172839506172839,0,0,0.06172839506172839,17.22222222222222,0)" xlink:href="#o"/><use transform="matrix(0.06172839506172839,0,0,0.06172839506172839,23.39506172839506,0)" xlink:href="#i"/><use transform="matrix(0.06172839506172839,0,0,0.06172839506172839,35.74074074074074,0)" xlink:href="#h"/><use transform="matrix(0.06172839506172839,0,0,0.06172839506172839,43.08641975308642,0)" xlink:href="#i"/><use transform="matrix(0.06172839506172839,0,0,0.06172839506172839,55.432098765432094,0)" xlink:href="#p"/><use transform="matrix(0.06172839506172839,0,0,0.06172839506172839,67.77777777777777,0)" xlink:href="#j"/><use transform="matrix(0.06172839506172839,0,0,0.06172839506172839,78.88888888888889,0)" xlink:href="#n"/><use transform="matrix(0.06172839506172839,0,0,0.06172839506172839,83.76543209876543,0)" xlink:href="#l"/><use transform="matrix(0.06172839506172839,0,0,0.06172839506172839,96.11111111111111,0)" xlink:href="#q"/></g></defs></g></svg>